<svg xmlns="http://www.w3.org/2000/svg" width="736" height="809" viewBox="0 0 736 809" version="1.1">
	<path d="M 225.499 57.500 C 225.364 58.050, 224.719 61.425, 224.067 65 C 222.492 73.628, 215.360 88.175, 208.750 96.240 C 193.439 114.919, 171.852 128.218, 138.500 139.519 C 127.182 143.355, 110.685 146.995, 91.120 149.974 C 84.312 151.011, 78.391 152.228, 77.963 152.680 C 76.630 154.087, 81.168 201.181, 85.028 226 C 92.229 272.296, 100.924 313.802, 111.425 352 C 112.861 357.225, 114.894 364.701, 115.942 368.614 C 120.672 386.266, 137.452 435.366, 143.636 449.651 C 144.386 451.384, 145 453.432, 145 454.201 C 145 454.971, 145.378 456.027, 145.840 456.550 C 146.302 457.072, 147.272 459.075, 147.996 461 C 148.720 462.925, 150.367 466.876, 151.656 469.780 C 152.945 472.683, 154 475.300, 154 475.594 C 154 475.888, 155.174 478.687, 156.608 481.814 C 158.042 484.941, 161.237 492, 163.706 497.500 C 179.159 531.915, 204.459 577.456, 225.371 608.500 C 258.189 657.219, 295.040 699.512, 335.966 735.429 C 347.425 745.486, 364.015 759.035, 370.625 763.736 L 373.750 765.958 382.125 759.494 C 420.292 730.032, 457.644 693.061, 488.705 654 C 574.979 545.504, 634.664 400.339, 660.979 235 C 664.653 211.912, 671.058 152.011, 669.854 151.995 C 668.321 151.975, 642.046 147.678, 636.500 146.541 C 583.098 135.585, 546.578 113.846, 529.636 82.930 C 526.482 77.174, 522.633 65.485, 521.806 59.153 L 521.500 56.805 373.623 56.653 C 275.742 56.552, 225.662 56.838, 225.499 57.500 M 244.324 84.250 C 243.888 84.938, 242.512 87.680, 241.267 90.345 C 233.478 107.019, 214.158 126.180, 192.500 138.711 C 175.702 148.430, 152.111 158.444, 134.500 163.331 C 116.386 168.358, 109.923 170, 108.254 170 C 105.211 170, 104.236 171.865, 104.691 176.819 C 111.518 251.276, 130.040 335.282, 155.662 408 C 190.211 506.055, 234.518 585.932, 292.929 655.464 C 304.618 669.378, 336.654 702.600, 347.039 711.577 C 349.535 713.734, 354.669 718.200, 358.446 721.500 C 367.999 729.845, 371.124 732.036, 372.399 731.285 C 373.005 730.928, 377.100 727.934, 381.500 724.630 C 435.787 683.871, 485.176 623.456, 525.553 548.421 C 555.522 492.724, 580.139 431.684, 601.539 360 C 606.243 344.246, 607.160 340.913, 613.381 317 C 627.173 263.983, 643.603 177.140, 640.426 174.052 C 639.917 173.557, 635 172.400, 629.500 171.482 C 591.661 165.163, 556.304 150.319, 534.544 131.618 C 518.821 118.105, 508.017 103.901, 501.939 88.750 L 499.632 83 372.375 83 C 271.659 83, 244.952 83.261, 244.324 84.250 M 338 128.985 C 336.764 129.771, 336.720 130.293, 337.750 131.956 C 339.524 134.818, 339.339 135.808, 336.373 139.333 C 333.909 142.261, 333.781 142.918, 334.307 149.876 C 334.928 158.081, 336.426 160.634, 339.961 159.512 C 341.495 159.025, 341.946 158.326, 341.476 157.160 C 341.108 156.247, 340.396 152.350, 339.893 148.500 C 338.589 138.509, 341.109 133.382, 346.029 136.015 C 348.414 137.292, 349.987 142.892, 349.994 150.128 C 350.001 156.377, 351.527 158.602, 355.043 157.486 C 356.657 156.974, 357.033 156.277, 356.574 154.654 C 356.239 153.469, 355.694 149.575, 355.364 146 C 354.649 138.270, 353.130 135.499, 348.561 133.590 C 346.691 132.809, 344.659 131.231, 344.045 130.085 C 342.856 127.862, 340.452 127.425, 338 128.985 M 406.731 130.603 C 406.349 130.984, 406.294 132.324, 406.609 133.578 C 407.056 135.359, 406.203 136.807, 402.719 140.180 C 398.802 143.972, 398.121 145.285, 397.148 150.921 C 395.948 157.876, 396.644 160, 400.122 160 C 401.419 160, 402 159.283, 402 157.682 C 402 154.238, 405.592 141.197, 407.012 139.486 C 408.409 137.802, 410.803 137.590, 412.965 138.957 C 414.821 140.131, 414.651 145.699, 412.508 153.971 C 410.800 160.562, 411.444 163, 414.894 163 C 416.127 163, 416.894 161.295, 417.931 156.250 C 420.633 143.103, 420.545 141.888, 416.632 138.232 C 414.708 136.435, 412.992 133.960, 412.817 132.732 C 412.599 131.194, 411.711 130.408, 409.963 130.204 C 408.567 130.041, 407.113 130.221, 406.731 130.603 M 308.600 138.838 C 308.276 139.362, 308.684 140.048, 309.506 140.364 C 310.673 140.812, 311.003 142.859, 311.014 149.719 C 311.031 160.735, 311.604 163.005, 314.367 162.985 C 317.755 162.960, 319.746 161.346, 318.242 159.842 C 317.475 159.075, 316.994 155.711, 316.985 151.050 C 316.968 142.188, 315.538 138.627, 311.821 138.193 C 310.373 138.024, 308.924 138.314, 308.600 138.838 M 301.174 143.005 C 298.484 145.247, 298.977 149, 301.960 149 C 303.973 149, 305 147.114, 305 143.418 C 305 140.519, 304.253 140.439, 301.174 143.005 M 442.492 144.015 C 440.360 148.138, 440.615 149, 443.965 149 C 445.906 149, 447.299 148.310, 448 147 C 449.283 144.603, 453.529 144.331, 454.396 146.590 C 455.342 149.054, 452.040 153.680, 448.078 155.444 C 446.110 156.320, 440.968 157.704, 436.651 158.520 C 427.483 160.254, 427 160.482, 427 163.091 C 427 166.066, 431.015 167.226, 433.500 164.969 C 434.600 163.970, 439.775 161.955, 445 160.491 C 455.605 157.520, 456.035 157.263, 459.960 151.558 L 462.751 147.500 453.368 144.315 L 443.984 141.130 442.492 144.015 M 287 148.046 C 276.203 153.745, 273.727 161.380, 279.157 172.234 C 281.246 176.411, 284.585 177.827, 288.017 175.991 C 290.215 174.814, 290.213 174.808, 287.213 172.983 C 283.725 170.862, 281.694 165.744, 281.578 158.787 C 281.477 152.678, 283.739 149.987, 287.351 151.920 C 290.378 153.540, 294 152.477, 294 149.968 C 294 146.796, 290.953 145.959, 287 148.046 M 467.188 153.163 C 467.440 156.662, 467.870 157.500, 469.417 157.500 C 470.633 157.500, 471.679 156.463, 472.279 154.662 C 473.312 151.565, 472.729 150.596, 469.188 149.525 C 466.992 148.861, 466.892 149.042, 467.188 153.163 M 322.933 158.067 C 321.290 159.710, 321.110 160.428, 322.056 161.567 C 323.448 163.245, 326.597 163.461, 327.535 161.943 C 328.406 160.533, 327.221 156, 325.981 156 C 325.441 156, 324.070 156.930, 322.933 158.067 M 265 161.500 C 263.456 163.360, 265.254 166, 268.063 166 C 270.610 166, 271.292 164.440, 269.793 162.041 C 268.282 159.620, 266.708 159.442, 265 161.500 M 478.179 162.503 C 474.363 165.714, 469 174.056, 469 176.781 C 469 177.939, 470 179.587, 471.223 180.443 C 474.122 182.474, 475.240 182.413, 474.750 180.250 C 473.938 176.669, 481.935 164.898, 486.635 162.757 C 490.155 161.153, 489.503 160, 485.077 160 C 482.350 160, 480.247 160.763, 478.179 162.503 M 255.064 161.939 C 253.889 162.683, 253.861 163.127, 254.908 164.389 C 255.766 165.423, 255.963 167.259, 255.506 169.965 C 254.977 173.096, 254.379 174, 252.837 174 C 251.109 174, 250.885 173.416, 251.124 169.533 C 251.275 167.075, 251.117 164.784, 250.774 164.441 C 250.431 164.097, 248.968 165.602, 247.525 167.784 C 244.343 172.591, 244.834 175.985, 249.185 179.267 C 252.769 181.972, 255.370 184.554, 258.370 188.385 C 260.355 190.921, 260.896 191.126, 262.841 190.085 L 265.054 188.901 262.590 184.700 C 261.234 182.390, 258.972 179.913, 257.563 179.195 C 254.186 177.476, 254.323 176.504, 258.500 172.565 C 262.917 168.399, 263.327 163.926, 259.453 162.161 C 256.446 160.790, 256.848 160.811, 255.064 161.939 M 494 165.392 C 494 167.886, 497.035 172, 498.875 172 C 500.036 172, 501.238 165.832, 500.262 164.883 C 499.843 164.475, 498.262 163.836, 496.750 163.462 C 494.279 162.852, 494 163.048, 494 165.392 M 294.557 167.223 C 292.110 170.716, 292.616 172, 296.441 172 C 300.734 172, 301.553 170.773, 299.427 167.528 C 297.393 164.425, 296.553 164.372, 294.557 167.223 M 513.461 172.044 C 511.628 174.068, 511.647 174.144, 514.548 176.477 L 517.500 178.850 512.500 183.678 C 509.750 186.333, 505.339 190.241, 502.698 192.363 C 497.830 196.272, 497.136 198.427, 500.137 200.316 C 501.454 201.146, 502.915 200.240, 507.637 195.664 C 510.861 192.538, 514.175 189.729, 515 189.421 C 515.825 189.114, 517.830 187.262, 519.456 185.307 L 522.413 181.753 520.172 179.938 C 518.553 178.627, 518.095 177.470, 518.522 175.768 C 518.924 174.168, 518.506 172.862, 517.219 171.698 C 515.423 170.073, 515.227 170.091, 513.461 172.044 M 397.570 176.887 C 397.269 177.374, 397.692 178.329, 398.511 179.009 C 399.750 180.038, 400 179.889, 400 178.122 C 400 175.977, 398.579 175.254, 397.570 176.887 M 335.500 178 C 335.160 178.550, 335.584 179, 336.441 179 C 337.298 179, 338 178.550, 338 178 C 338 177.450, 337.577 177, 337.059 177 C 336.541 177, 335.840 177.450, 335.500 178 M 344 178 C 344 178.550, 344.702 179, 345.559 179 C 346.416 179, 346.840 178.550, 346.500 178 C 346.160 177.450, 345.459 177, 344.941 177 C 344.423 177, 344 177.450, 344 178 M 353 178 C 353 178.550, 353.450 179, 354 179 C 354.550 179, 355 178.550, 355 178 C 355 177.450, 354.550 177, 354 177 C 353.450 177, 353 177.450, 353 178 M 361.500 178 C 361.840 178.550, 362.316 179, 362.559 179 C 362.802 179, 363 178.550, 363 178 C 363 177.450, 362.523 177, 361.941 177 C 361.359 177, 361.160 177.450, 361.500 178 M 370 178 C 370 178.550, 370.450 179, 371 179 C 371.550 179, 372 178.550, 372 178 C 372 177.450, 371.550 177, 371 177 C 370.450 177, 370 177.450, 370 178 M 379 178 C 379 178.550, 379.702 179, 380.559 179 C 381.416 179, 381.840 178.550, 381.500 178 C 381.160 177.450, 380.459 177, 379.941 177 C 379.423 177, 379 177.450, 379 178 M 389 178 C 389 178.550, 389.675 179, 390.500 179 C 391.325 179, 392 178.550, 392 178 C 392 177.450, 391.325 177, 390.500 177 C 389.675 177, 389 177.450, 389 178 M 413 178 C 413 178.550, 413.450 179, 414 179 C 414.550 179, 415 178.550, 415 178 C 415 177.450, 414.550 177, 414 177 C 413.450 177, 413 177.450, 413 178 M 421 178 C 421 178.550, 421.675 179, 422.500 179 C 423.325 179, 424 178.550, 424 178 C 424 177.450, 423.325 177, 422.500 177 C 421.675 177, 421 177.450, 421 178 M 498.517 180.981 C 496.782 182.899, 496.800 182.990, 499.075 183.832 C 503.397 185.431, 507.256 183.219, 504.964 180.456 C 503.278 178.426, 500.635 178.641, 498.517 180.981 M 400.473 181.044 C 400.148 181.570, 400.160 182.450, 400.500 183 C 401.424 184.495, 404 184.206, 404 182.607 C 404 180.911, 401.296 179.713, 400.473 181.044 M 227.573 182.920 C 225.910 184.757, 225.933 184.853, 228.115 185.170 C 229.752 185.407, 231.743 187.758, 235.171 193.500 C 240.890 203.082, 242.126 204.101, 244.941 201.553 C 247.289 199.429, 247.597 198, 245.708 198 C 244.997 198, 242.676 195.026, 240.550 191.392 C 234.505 181.058, 231.206 178.905, 227.573 182.920 M 376.400 184.517 C 376.400 188.099, 377.574 188.623, 379.338 185.826 C 380.533 183.932, 379.557 181, 377.731 181 C 376.875 181, 376.400 182.255, 376.400 184.517 M 394.492 181.792 C 393.946 182.181, 391.813 185.008, 389.750 188.073 C 386.168 193.397, 385.290 195.957, 386.598 197.264 C 387.625 198.292, 390 196.862, 390 195.216 C 390 194.353, 391.656 191.242, 393.680 188.303 C 395.972 184.975, 397.006 182.606, 396.422 182.022 C 395.906 181.506, 395.037 181.402, 394.492 181.792 M 339.534 183.250 C 337.026 191.016, 337.289 198.111, 339.985 195.415 C 341.214 194.186, 343.186 184.110, 342.435 182.895 C 341.633 181.598, 340.003 181.798, 339.534 183.250 M 361.575 183.167 C 361.341 183.900, 360.865 186.627, 360.517 189.227 C 360.169 191.826, 359.453 194.220, 358.926 194.546 C 357.096 195.677, 359.071 197.032, 361.025 195.986 C 363.189 194.829, 365.365 188.591, 364.847 185.034 C 364.459 182.376, 362.234 181.106, 361.575 183.167 M 370.451 183.079 C 369.495 184.626, 370.958 196.856, 372.190 197.618 C 372.759 197.969, 373.616 197.636, 374.096 196.878 C 375.302 194.974, 375.227 188, 374 188 C 373.450 188, 373 186.650, 373 185 C 373 182.006, 371.714 181.036, 370.451 183.079 M 385.459 183.067 C 385.096 183.653, 385.050 184.384, 385.357 184.690 C 386.179 185.513, 389 184.229, 389 183.031 C 389 181.674, 386.303 181.701, 385.459 183.067 M 409.409 183.376 C 408.562 185.584, 409.689 186.711, 411.217 185.183 C 412.119 184.281, 412.122 183.722, 411.233 182.833 C 410.343 181.943, 409.909 182.072, 409.409 183.376 M 416.569 182.889 C 416.207 183.474, 415.638 186.259, 415.304 189.079 C 414.752 193.740, 414.869 194.172, 416.599 193.843 C 418.103 193.557, 418.565 192.463, 418.810 188.601 C 419.116 183.807, 417.906 180.725, 416.569 182.889 M 423.419 183.131 C 422.567 184.510, 424.524 186.412, 425.913 185.554 C 426.511 185.184, 427 184.507, 427 184.048 C 427 182.718, 424.129 181.982, 423.419 183.131 M 482.247 183.153 C 480.490 184.910, 480.693 186.412, 482.963 188.466 C 485.442 190.710, 487.548 189.937, 488.420 186.463 C 489.212 183.308, 489.237 183.349, 485.994 182.535 C 484.526 182.166, 482.978 182.422, 482.247 183.153 M 351.642 186.750 C 350.715 192.359, 350.871 195.802, 352.087 196.554 C 353.894 197.671, 354.763 195.810, 355.497 189.250 C 356.144 183.464, 356.050 183, 354.229 183 C 352.733 183, 352.113 183.897, 351.642 186.750 M 223 191.001 C 222.009 193.393, 222.009 194.306, 223.001 195.501 C 226.012 199.129, 227.943 196.120, 226.370 190.250 C 225.549 187.187, 224.481 187.425, 223 191.001 M 395.652 192.182 C 396.932 198.932, 400.274 200.193, 399.807 193.750 C 399.552 190.224, 399.119 189.446, 397.261 189.182 C 395.228 188.893, 395.081 189.169, 395.652 192.182 M 248.806 193.527 C 247.196 197.060, 248.940 198.804, 252.473 197.194 C 255.209 195.948, 255.700 194.100, 253.800 192.200 C 251.900 190.300, 250.052 190.791, 248.806 193.527 M 518.102 193.206 C 517.255 195.450, 518.080 198.313, 519.896 199.436 C 521.045 200.146, 524.268 195.243, 523.486 193.977 C 523.157 193.446, 522.006 192.539, 520.928 191.962 C 519.299 191.090, 518.822 191.300, 518.102 193.206 M 409.250 194.718 C 407.839 195.224, 407.524 198, 408.878 198 C 410.188 198, 412.221 195.249, 411.299 194.724 C 410.859 194.474, 409.938 194.472, 409.250 194.718 M 421.419 195.131 C 420.567 196.510, 422.524 198.412, 423.913 197.554 C 424.511 197.184, 425 196.507, 425 196.048 C 425 194.718, 422.129 193.982, 421.419 195.131 M 342 201.417 C 342 202.287, 342.712 203, 343.583 203 C 345.349 203, 345.042 200.847, 343.188 200.229 C 342.534 200.011, 342 200.546, 342 201.417 M 359 201.417 C 359 202.287, 359.712 203, 360.583 203 C 362.349 203, 362.042 200.847, 360.188 200.229 C 359.534 200.011, 359 200.546, 359 201.417 M 376.500 201 C 376.160 201.550, 376.610 202, 377.500 202 C 378.390 202, 378.840 201.550, 378.500 201 C 378.160 200.450, 377.710 200, 377.500 200 C 377.290 200, 376.840 200.450, 376.500 201 M 387.469 201.050 C 386.519 202.588, 387.820 203.580, 389.104 202.296 C 389.822 201.578, 389.839 201.019, 389.156 200.597 C 388.596 200.251, 387.837 200.455, 387.469 201.050 M 396 201 C 396 201.550, 396.423 202, 396.941 202 C 397.459 202, 398.160 201.550, 398.500 201 C 398.840 200.450, 398.416 200, 397.559 200 C 396.702 200, 396 200.450, 396 201 M 410.667 200.667 C 409.516 201.817, 409.938 203, 411.500 203 C 412.325 203, 413 202.325, 413 201.500 C 413 199.938, 411.817 199.516, 410.667 200.667 M 419 201.500 C 419 202.417, 419.484 203.005, 420.075 202.808 C 420.666 202.611, 421.150 202.022, 421.150 201.500 C 421.150 200.978, 420.666 200.389, 420.075 200.192 C 419.484 199.995, 419 200.583, 419 201.500 M 333 202 C 333 202.550, 333.423 203, 333.941 203 C 334.459 203, 335.160 202.550, 335.500 202 C 335.840 201.450, 335.416 201, 334.559 201 C 333.702 201, 333 201.450, 333 202 M 350 202 C 350 202.550, 350.450 203, 351 203 C 351.550 203, 352 202.550, 352 202 C 352 201.450, 351.550 201, 351 201 C 350.450 201, 350 201.450, 350 202 M 368 202 C 368 202.550, 368.450 203, 369 203 C 369.550 203, 370 202.550, 370 202 C 370 201.450, 369.550 201, 369 201 C 368.450 201, 368 201.450, 368 202 M 547 208.574 C 544.790 210.137, 543.500 211.870, 543.500 213.275 C 543.500 214.847, 542.982 215.413, 541.735 215.203 C 540.654 215.021, 539.650 215.771, 539.144 217.140 C 538.573 218.684, 536.985 219.703, 534.005 220.437 C 528.846 221.709, 526.790 224.219, 529.054 226.482 C 530.413 227.842, 530.987 227.791, 534.498 226.001 C 536.657 224.900, 538.980 224, 539.660 224 C 540.340 224, 542.118 222.868, 543.611 221.484 C 545.490 219.743, 546.968 219.162, 548.413 219.597 C 550.112 220.108, 550.268 219.981, 549.250 218.912 C 547.197 216.757, 547.817 214.539, 551 212.659 C 554.338 210.687, 554.683 209.540, 552.571 207.429 C 550.819 205.676, 551.211 205.595, 547 208.574 M 376.846 213.465 C 370.924 217.810, 370.797 218.045, 370.382 225.374 C 370.069 230.888, 369.520 232.950, 367.007 238.038 C 366.589 238.885, 365.933 241.436, 365.549 243.709 C 364.906 247.514, 365.035 247.867, 367.176 248.171 C 368.883 248.413, 369.586 249.250, 369.824 251.324 C 370.001 252.876, 371.014 255.014, 372.074 256.074 C 374.461 258.461, 374.452 259.407, 371.993 264.826 C 369.485 270.353, 366.500 270.362, 366.500 264.843 C 366.500 261.510, 363.412 256.254, 362.179 257.488 C 361.904 257.763, 362.483 258.876, 363.465 259.961 C 364.536 261.145, 365.031 262.773, 364.702 264.030 C 364.401 265.182, 364.823 267.725, 365.639 269.679 C 366.456 271.634, 366.916 273.775, 366.662 274.437 C 366.015 276.123, 353.124 278.387, 347.670 277.772 C 344.996 277.471, 342.648 277.720, 341.942 278.381 C 341.017 279.246, 340.892 278.167, 341.395 273.635 C 342.009 268.093, 341.892 267.640, 339.272 265.387 C 337.084 263.505, 336.869 263.002, 338.250 263.001 C 339.333 263, 340 262.238, 340 261 C 340 259.774, 339.323 258.988, 338.250 258.968 C 336.688 258.940, 336.715 258.772, 338.500 257.410 C 340.374 255.981, 340.390 255.822, 338.750 254.893 C 336.725 253.745, 336.421 251.994, 338.250 252.012 C 338.938 252.019, 340.517 253.594, 341.759 255.512 C 343.871 258.773, 348 260.405, 348 257.980 C 348 256.355, 343.076 249, 341.987 249 C 341.444 249, 341 248.070, 341 246.933 C 341 245.247, 340.584 244.995, 338.750 245.567 C 337.512 245.954, 336.275 246.598, 336 247 C 335.331 247.979, 327.345 252, 326.071 252 C 325.517 252, 325.314 251.347, 325.620 250.548 C 326.649 247.867, 324.995 247.005, 322.880 249.120 C 321.754 250.246, 320.983 251.260, 321.167 251.375 C 325.837 254.294, 328.988 256.659, 328.993 257.250 C 329.004 258.386, 331.981 258.148, 332.125 257 C 332.194 256.450, 332.306 255.444, 332.375 254.764 C 332.444 254.084, 333.327 253.368, 334.339 253.173 C 335.861 252.880, 336.137 253.393, 335.943 256.160 C 335.815 257.997, 335.775 261.413, 335.855 263.750 C 335.977 267.327, 336.326 268, 338.059 268 C 339.265 268, 339.844 268.443, 339.458 269.068 C 339.095 269.656, 338.168 269.895, 337.399 269.600 C 336.074 269.091, 335.522 270.652, 335.927 273.757 C 336.017 274.449, 334.913 275.463, 333.472 276.011 L 330.853 277.006 333.177 279.948 C 334.454 281.566, 336.054 282.914, 336.731 282.945 C 337.408 282.975, 338.244 284.125, 338.589 285.500 C 338.934 286.875, 339.423 288, 339.674 288 C 341.188 288, 344 285.702, 344 284.465 C 344 282.486, 345.634 282.604, 346.415 284.640 C 346.953 286.042, 348.278 286.202, 355.582 285.747 C 360.278 285.454, 364.359 284.975, 364.651 284.682 C 364.943 284.390, 364.886 283.217, 364.524 282.075 C 363.682 279.422, 361 279.364, 361 282 C 361 283.100, 360.550 284, 360 284 C 357.028 284, 360.605 279.325, 364.250 278.446 C 366.617 277.876, 367 278.089, 367 279.981 C 367 281.190, 367.899 282.927, 368.997 283.840 C 370.095 284.753, 371.237 286.850, 371.535 288.500 C 372.023 291.208, 371.229 292.353, 363.391 300.250 C 358.615 305.063, 354.152 309, 353.472 309 C 352.793 309, 351.083 307.538, 349.672 305.750 C 348.261 303.962, 345.289 300.475, 343.069 298 C 340.848 295.525, 339.024 292.686, 339.016 291.691 C 338.992 288.950, 337.340 290.551, 336.654 293.979 C 336.178 296.360, 335.528 297, 333.584 297 C 332.228 297, 330.840 296.550, 330.500 296 C 329.403 294.225, 326.418 294.934, 324.187 297.500 C 322.991 298.875, 321.448 300.007, 320.757 300.015 C 319.910 300.026, 319.990 300.347, 321 301 C 323.273 302.469, 325.294 302.208, 324.649 300.529 C 324.339 299.720, 324.736 298.407, 325.532 297.611 C 326.794 296.349, 327.617 296.398, 331.989 297.996 C 336.110 299.502, 337 299.577, 337 298.414 C 337 296.850, 339.558 296.475, 340.444 297.910 C 342.163 300.691, 335.467 305.581, 331.574 304.387 C 329.966 303.895, 330.144 304.266, 332.368 306.041 C 334.964 308.114, 335.324 308.173, 336.165 306.669 C 336.980 305.213, 337.770 305.517, 342.548 309.124 C 345.546 311.388, 347.987 313.749, 347.971 314.370 C 347.924 316.158, 342.191 322, 340.483 322 C 339.633 322, 338.660 322.788, 338.322 323.750 C 337.584 325.849, 332.959 331, 331.813 331 C 330.650 331, 330.806 327.238, 332 326.500 C 332.550 326.160, 333 325.234, 333 324.441 C 333 321.981, 324.120 322.539, 321.314 325.174 C 320.042 326.370, 319 326.820, 319 326.174 C 319 325.528, 318.612 325, 318.139 325 C 317.665 325, 317.473 326.024, 317.712 327.276 C 318.474 331.259, 304.317 344.941, 302.491 341.986 C 301.831 340.918, 304.865 337.650, 307.430 336.665 C 308.655 336.195, 308.981 335.442, 308.478 334.242 C 308.078 333.284, 307.406 330.758, 306.987 328.628 C 306.260 324.938, 304.735 323.049, 302.458 323.015 C 300.601 322.988, 293.153 331.417, 292.429 334.365 C 291.999 336.114, 290.422 337.999, 288.377 339.205 C 285.998 340.609, 284.724 342.312, 283.976 345.090 C 283.397 347.241, 282.502 349, 281.987 349 C 279.592 349, 278.060 354.837, 278.667 361.646 C 279.386 369.701, 280.863 373.054, 284.985 375.989 C 286.923 377.369, 288 379.005, 288 380.568 C 288 381.906, 287.881 383, 287.736 383 C 286.392 383, 276.378 378.758, 275.123 377.656 C 272.659 375.495, 262.969 373.158, 258.785 373.716 C 253.281 374.449, 252.668 375.737, 254.353 383.030 C 255.999 390.154, 258.313 392.718, 258.813 387.973 C 258.986 386.338, 259.314 385, 259.542 385 C 259.771 385, 262.442 387.525, 265.479 390.610 C 269.504 394.700, 271 396.973, 271 398.999 C 271 402.154, 274.804 407.280, 275.645 405.258 C 276.020 404.355, 276.685 404.296, 278.081 405.043 C 279.777 405.951, 280 405.718, 280 403.035 C 280 398.431, 282.946 399.134, 289.693 405.350 C 298.290 413.269, 298.816 413.446, 306.611 411.038 C 315.178 408.392, 317.580 408.468, 321.182 411.500 C 325.247 414.921, 328.261 414.700, 331.426 410.750 C 332.858 408.962, 334.491 406.938, 335.055 406.250 C 335.618 405.563, 337.422 405, 339.064 405 C 340.706 405, 344.480 404.146, 347.450 403.102 L 352.851 401.204 355.489 404.164 C 358.510 407.555, 360.633 407.440, 360.211 403.908 C 359.829 400.717, 362.219 397.486, 364.355 398.306 C 365.490 398.742, 366 400.139, 366 402.814 C 366 405.299, 366.656 407.284, 367.829 408.345 C 370.537 410.796, 371.163 410.384, 370.456 406.615 C 369.729 402.743, 370.946 401.494, 375.135 401.813 C 376.989 401.955, 378.793 401.053, 380.926 398.920 L 384.024 395.822 389.512 400.837 C 400.044 410.463, 408.466 412.889, 425.276 411.140 C 436.915 409.929, 443.510 407.222, 452.374 400.018 C 458.480 395.055, 461.008 392.139, 469.553 380.207 C 474.320 373.550, 476.421 372.021, 478.265 373.865 C 479.412 375.012, 479.006 377.658, 475.940 389 C 475.271 391.475, 474.107 395.833, 473.353 398.683 C 471.631 405.196, 468.273 409.229, 462.227 412.046 C 448.197 418.581, 442.994 421.349, 441.376 423.137 C 439.594 425.106, 439.654 425.116, 450.041 424.430 C 468.120 423.237, 473.879 420.337, 481.505 408.590 C 490.746 394.355, 495.340 383.808, 497.972 370.785 C 499.477 363.340, 497.636 359.043, 491.370 355.371 C 487.801 353.279, 487 352.278, 487 349.905 C 487 346.480, 485.642 346.257, 481.500 349 C 477.683 351.528, 476 351.528, 476 349 C 476 345.989, 473.259 346.598, 471.500 350 C 469.656 353.566, 468.260 353.850, 467.820 350.750 C 467.315 347.197, 465.720 348.098, 463.230 353.344 C 461.310 357.389, 460.689 357.987, 459.465 356.971 C 458.248 355.961, 457.745 356.367, 456.487 359.378 C 454.874 363.237, 454.091 363.691, 452.237 361.837 C 451.353 360.953, 450.825 361.329, 450.037 363.402 C 449.467 364.903, 449 366.498, 449 366.948 C 449 367.399, 448.115 367.998, 447.033 368.281 C 445.950 368.564, 444.278 370.446, 443.316 372.463 C 441.732 375.784, 441.448 375.966, 440.294 374.388 C 439.594 373.430, 438.880 372.838, 438.708 373.073 C 438.536 373.308, 437.621 374.738, 436.674 376.250 C 434.490 379.742, 433 379.764, 433 376.304 L 433 373.608 429.702 376.804 C 425.595 380.785, 424.584 380.830, 425.350 377 C 425.680 375.350, 425.695 374, 425.384 374 C 425.073 374, 422.978 375.575, 420.729 377.500 C 418.480 379.425, 416.046 381, 415.320 381 C 413.783 381, 413.527 377.410, 415 376.500 C 415.550 376.160, 416 375.313, 416 374.618 C 416 373.690, 414.165 373.437, 409.116 373.669 C 403.939 373.907, 401.925 373.615, 400.994 372.492 C 400.312 371.672, 398.901 371, 397.856 371 C 395.251 371, 393.041 366.219, 395.057 364.944 C 397.585 363.344, 399.849 363.908, 400.301 366.250 C 400.540 367.488, 400.549 366.700, 400.323 364.500 C 400.065 361.998, 398.772 359.078, 396.871 356.704 C 394.533 353.784, 394.090 352.596, 394.951 351.559 C 395.567 350.817, 396.001 349.826, 395.917 349.355 C 395.378 346.352, 396.182 343, 397.441 343 C 399.563 343, 400.351 344.872, 398.944 346.568 C 397.198 348.671, 398.549 349.527, 401.496 348.184 C 403.284 347.369, 404.004 346.250, 404.015 344.271 C 404.042 339.443, 405.189 338.590, 409.627 340.095 C 415.783 342.182, 415.904 342.788, 411.001 346.985 C 408.527 349.103, 406.735 351.069, 407.021 351.354 C 407.306 351.639, 410.410 349.296, 413.920 346.148 C 420.121 340.584, 420.314 340.262, 420.774 334.712 L 421.248 329 425.874 328.825 L 430.500 328.651 426 328.262 C 423.525 328.049, 421.073 327.452, 420.550 326.937 C 420.028 326.422, 419.022 326, 418.316 326 C 417.338 326, 417.419 326.811, 418.658 329.409 C 421.091 334.510, 419.927 336.404, 414.858 335.593 C 406.973 334.332, 405.305 332.196, 409.060 328.166 C 410.470 326.653, 410.907 325.282, 410.445 323.826 C 409.908 322.134, 410.103 321.825, 411.396 322.322 C 412.290 322.665, 414.416 322.667, 416.120 322.326 L 419.219 321.706 414.271 319.603 C 411.549 318.446, 407.787 316.327, 405.911 314.893 L 402.500 312.285 398.168 317.143 C 395.785 319.814, 393.010 322, 392.001 322 C 390.992 322, 389.960 322.563, 389.708 323.250 C 389.352 324.222, 388.944 324.194, 387.875 323.125 C 386.793 322.043, 386.769 321.651, 387.765 321.287 C 388.461 321.032, 391.123 318.613, 393.681 315.912 C 396.239 313.210, 398.747 311, 399.255 311 C 400.667 311, 403.894 306.954, 406.034 302.500 C 408.366 297.647, 408.530 290.910, 406.463 284.845 C 404.973 280.471, 405.002 280.201, 407.451 275.917 C 408.840 273.488, 409.981 270.269, 409.988 268.763 C 409.997 266.613, 410.713 265.729, 413.328 264.636 C 416.658 263.245, 418.602 260.061, 419.203 255.010 C 419.390 253.445, 420.243 252.385, 421.500 252.157 C 424.723 251.571, 426.925 248.990, 428.386 244.086 C 429.137 241.564, 430.968 237.324, 432.456 234.664 C 433.944 232.004, 434.931 229.598, 434.651 229.317 C 434.370 229.037, 432.146 230.179, 429.709 231.856 C 427.272 233.533, 423.303 235.669, 420.889 236.602 C 418.475 237.536, 415.345 239.362, 413.933 240.661 C 411.861 242.568, 410.705 242.898, 407.933 242.374 C 406.045 242.017, 403.712 241.042, 402.750 240.208 C 401.184 238.850, 400.816 238.854, 399.250 240.246 C 398.288 241.102, 395.484 242.399, 393.020 243.129 C 390.336 243.923, 387.388 245.766, 385.666 247.727 C 384.086 249.527, 382.213 251, 381.505 251 C 379.915 251, 378.696 246.534, 379.550 243.842 C 380.138 241.990, 380.305 241.966, 381.991 243.492 C 383.261 244.641, 384.009 244.794, 384.499 244.002 C 385.380 242.577, 382.032 238.774, 380.435 239.387 C 379.780 239.638, 378.737 239.337, 378.118 238.718 C 377.283 237.883, 375.853 238.710, 372.589 241.913 C 367.789 246.623, 365.331 246.760, 367.178 242.214 C 371.164 232.404, 373.578 229, 376.549 229 C 378.412 229, 383.645 235.376, 385.112 239.434 C 386.364 242.895, 388 244.235, 388 241.799 C 388 239.626, 381.617 230.013, 379.789 229.433 C 376.801 228.485, 377.776 226.391, 381.973 224.743 C 384.759 223.649, 386.443 222.139, 387.611 219.690 C 389.216 216.323, 389.197 216.085, 387.070 213.099 C 384.275 209.173, 382.614 209.232, 376.846 213.465 M 199 214 C 198.175 214.533, 195.660 214.976, 193.411 214.985 C 190.042 214.997, 189.123 215.435, 188.198 217.464 C 186.974 220.152, 187.172 220.406, 191.250 221.381 C 193.659 221.957, 194 222.514, 194 225.884 C 194 230.489, 196.125 233.453, 203.092 238.568 L 208.158 242.286 210.329 240.057 L 212.500 237.828 210.025 236.164 C 208.664 235.249, 204.952 232.346, 201.775 229.714 C 197.146 225.877, 196 224.346, 196 221.999 C 196 220.070, 196.700 218.696, 198.051 217.973 C 200.406 216.712, 202.458 217.788, 210.978 224.750 C 216.719 229.441, 218.917 229.964, 220.724 227.071 C 221.766 225.401, 221.545 224.898, 219.075 223.321 C 217.506 222.319, 213.882 219.588, 211.022 217.250 C 205.805 212.988, 202.112 211.989, 199 214 M 551.998 224.167 C 551.996 225.600, 545.528 229.900, 540.283 231.955 C 535.637 233.775, 534.753 235.202, 536.619 237.866 C 537.932 239.741, 538.425 239.889, 539.723 238.798 C 540.571 238.084, 544.243 235.925, 547.882 234 C 554.065 230.730, 554.500 230.275, 554.500 227.083 C 554.500 225.204, 553.938 223.479, 553.250 223.250 C 552.563 223.021, 551.999 223.433, 551.998 224.167 M 333.844 230.444 C 332.714 232.923, 330 234.022, 330 232 C 330 231.450, 329.325 231, 328.500 231 C 326.174 231, 326.732 233.965, 329.232 234.890 C 333.039 236.298, 339.206 230.481, 336.004 228.503 C 335.457 228.164, 334.484 229.038, 333.844 230.444 M 341 233.500 C 340.315 234.325, 338.910 235, 337.878 235 C 336.667 235, 336 235.710, 336 237 C 336 239.606, 337.393 239.547, 339.173 236.866 C 340.511 234.851, 340.685 234.828, 342.304 236.447 C 343.669 237.812, 344.576 237.957, 346.759 237.159 C 349.360 236.209, 349.380 236.154, 347.156 236.079 C 345.695 236.030, 344.616 235.247, 344.290 234 C 343.666 231.615, 342.688 231.466, 341 233.500 M 349.604 237.590 C 348.785 239.725, 349.703 241, 352.059 241 C 353.463 241, 354 240.308, 354 238.500 C 354 235.619, 350.628 234.921, 349.604 237.590 M 569.070 239.415 C 568.179 240.490, 567.126 240.604, 564.698 239.891 C 560.769 238.736, 555.006 239.574, 548.822 242.199 C 543.366 244.515, 542.337 246.339, 544.567 249.742 L 546.179 252.203 548.839 249.665 C 551.984 246.665, 555.372 245.255, 560.074 244.990 C 568.326 244.525, 568.067 246.375, 559.015 252.560 C 551.343 257.802, 549.904 260.131, 552.537 263.041 C 554.215 264.895, 554.318 264.876, 556.963 262.219 C 558.453 260.724, 562.108 257.416, 565.086 254.869 C 571.309 249.547, 575.141 242.080, 572.984 239.481 C 571.449 237.631, 570.564 237.616, 569.070 239.415 M 325.625 240.750 C 325.188 242.045, 324.045 243, 322.933 243 C 320.899 243, 320.326 244.466, 321.964 245.477 C 323.381 246.354, 327.184 242.156, 326.754 240.189 C 326.459 238.838, 326.234 238.950, 325.625 240.750 M 400 243.409 C 400 246.135, 402.452 248.696, 403.476 247.040 C 404.403 245.540, 403.194 242.288, 401.462 241.624 C 400.435 241.230, 400 241.761, 400 243.409 M 170.655 243.829 C 168.612 246.087, 168.488 248.410, 170.451 247.657 C 173.223 246.593, 179.650 254.330, 178.090 256.854 C 177.414 257.949, 176.701 257.897, 174.122 256.563 C 172.392 255.669, 170.424 254.051, 169.748 252.969 C 167.944 250.079, 167 250.558, 167 254.364 C 167 258.338, 171.056 263, 174.514 263 C 177.651 263, 179.363 265.437, 178.667 268.915 C 178.196 271.268, 178.561 272.138, 180.571 273.454 C 183.543 275.402, 185 274.748, 185 271.464 C 185 269.988, 184.026 268.408, 182.500 267.408 C 179.478 265.428, 179.352 263.999, 182 261.732 C 183.100 260.790, 184 259.618, 184 259.126 C 184 258.635, 183.100 257.998, 182 257.710 C 180.305 257.267, 180 256.346, 180 251.666 C 180 246.893, 179.643 245.864, 177.365 244.073 C 174.125 241.524, 172.785 241.475, 170.655 243.829 M 192.636 243.507 C 191.512 246.436, 191.948 247.753, 194.250 248.378 C 195.841 248.811, 197.024 248.359, 198.290 246.835 C 200.286 244.432, 199.741 243.448, 195.886 242.496 C 193.966 242.023, 193.102 242.292, 192.636 243.507 M 355.607 243.582 C 354.575 246.271, 354.901 246.819, 357.931 247.485 C 359.543 247.839, 361.438 248.823, 362.143 249.672 C 363.203 250.949, 363.128 251.433, 361.712 252.468 C 359.842 253.836, 359.405 256, 361 256 C 361.550 256, 362 255.487, 362 254.860 C 362 254.233, 362.788 253.108, 363.750 252.360 C 365.380 251.094, 365.306 250.853, 362.672 248.860 C 361.116 247.683, 359.440 245.658, 358.947 244.360 C 357.911 241.635, 356.482 241.302, 355.607 243.582 M 405.667 243.667 C 405.300 244.033, 405 245.181, 405 246.216 C 405 248.723, 402.220 254, 400.899 254 C 400.322 254, 399.931 252.762, 400.031 251.250 C 400.337 246.596, 400.066 245.863, 398.154 246.187 C 397.138 246.359, 395.563 245.882, 394.654 245.127 C 393.188 243.911, 393 244.049, 393 246.346 C 393 248.155, 392.578 248.775, 391.601 248.400 C 390.832 248.105, 389.905 248.344, 389.542 248.932 C 389.179 249.519, 388.009 250, 386.941 250 C 384.408 250, 384.399 253.041, 386.926 255.204 C 388.152 256.254, 388.654 257.606, 388.309 258.927 C 387.638 261.492, 389.791 261.676, 394.141 259.427 C 396.906 257.997, 397.339 257.997, 398.920 259.427 C 399.875 260.292, 400.973 261, 401.359 261 C 402.407 261, 408.224 254.195, 410.430 250.388 C 412.305 247.154, 412.307 246.997, 410.525 245.028 C 408.659 242.966, 406.869 242.464, 405.667 243.667 M 186.278 250.250 C 184.531 252.508, 184.009 255, 185.281 255.010 C 185.952 255.015, 188.476 256.590, 190.891 258.510 C 195.896 262.489, 196.761 262.684, 198.608 260.250 C 200.524 257.726, 200.392 257.429, 196.275 255 C 194.226 253.791, 191.950 251.946, 191.218 250.901 C 189.685 248.712, 187.673 248.447, 186.278 250.250 M 349.337 250.564 C 348.971 251.518, 349.568 252.710, 350.869 253.620 C 352.587 254.824, 353 256.138, 353 260.407 C 353 267.264, 354.691 272.221, 356.866 271.742 C 357.765 271.543, 358.329 270.733, 358.121 269.941 C 357.913 269.148, 357.410 264.930, 357.003 260.566 C 356.399 254.081, 355.855 252.301, 354.021 250.816 C 351.272 248.590, 350.118 248.528, 349.337 250.564 M 389.079 252.583 C 389.127 253.748, 389.364 253.985, 389.683 253.188 C 389.972 252.466, 389.936 251.603, 389.604 251.271 C 389.272 250.939, 389.036 251.529, 389.079 252.583 M 413.573 251.881 C 413.251 252.403, 413.492 252.997, 414.108 253.203 C 414.763 253.421, 414.101 254.915, 412.513 256.803 C 409.538 260.338, 409.756 263, 413.020 263 C 414.460 263, 415.559 261.905, 416.585 259.451 C 417.957 256.168, 417.921 255.715, 416.114 253.417 C 415.039 252.051, 413.896 251.360, 413.573 251.881 M 393.750 253.392 C 391.903 254.794, 391.341 258, 392.943 258 C 393.462 258, 394.587 257, 395.443 255.777 C 398.049 252.058, 397.159 250.804, 393.750 253.392 M 381.250 255.224 C 378.655 256.471, 378.277 258, 380.563 258 C 381.719 258, 382.045 258.828, 381.813 261.173 C 381.432 265.039, 379 266.309, 379 262.642 C 379 258.900, 377.422 258.599, 375.076 261.893 C 372.409 265.639, 372.458 266, 375.640 266 C 377.092 266, 378.791 266.699, 379.416 267.554 C 382.136 271.274, 384.924 265.744, 385.452 255.583 C 385.525 254.179, 383.743 254.027, 381.250 255.224 M 329 260.882 C 329 261.432, 329.450 262.160, 330 262.500 C 330.550 262.840, 331 262.668, 331 262.118 C 331 261.568, 330.550 260.840, 330 260.500 C 329.450 260.160, 329 260.332, 329 260.882 M 394.813 262.683 C 395.534 262.972, 396.397 262.936, 396.729 262.604 C 397.061 262.272, 396.471 262.036, 395.417 262.079 C 394.252 262.127, 394.015 262.364, 394.813 262.683 M 404.114 265.132 C 401.935 267.883, 401.830 268.489, 402.904 272.073 C 403.551 274.233, 404.535 276, 405.091 276 C 406.666 276, 409.146 269.140, 408.806 265.726 C 408.400 261.650, 407.011 261.474, 404.114 265.132 M 343.607 264.582 C 342.647 267.084, 342.886 268, 344.500 268 C 345.325 268, 346 267.587, 346 267.082 C 346 266.577, 346.273 265.452, 346.607 264.582 C 346.994 263.573, 346.671 263, 345.714 263 C 344.889 263, 343.941 263.712, 343.607 264.582 M 568.583 263.750 C 568.171 264.163, 567.421 264.500, 566.917 264.500 C 566.413 264.500, 566 264.837, 566 265.250 C 566 265.663, 566 266.378, 566 266.839 C 566 268.233, 570.654 269.903, 572.899 269.316 C 575.422 268.656, 575.430 268.587, 573.385 265.465 C 571.763 262.990, 569.980 262.353, 568.583 263.750 M 329.116 269.168 C 329.052 270.086, 328.741 271.661, 328.424 272.668 C 327.879 274.404, 327.909 274.407, 328.992 272.719 C 329.620 271.739, 329.931 270.164, 329.683 269.219 C 329.277 267.670, 329.221 267.665, 329.116 269.168 M 384.500 270 C 384.160 270.550, 382.746 271, 381.358 271 C 378.519 271, 378.559 273.285, 381.407 273.838 C 383.153 274.176, 387 271.430, 387 269.845 C 387 268.675, 385.252 268.783, 384.500 270 M 574 272.228 C 572.625 272.829, 568.913 274.435, 565.750 275.797 C 560.031 278.260, 558.971 279.826, 560.930 282.921 C 561.704 284.144, 562.154 284.135, 564.165 282.857 C 567.130 280.973, 581.544 275.306, 585.499 274.471 C 588.363 273.865, 588.410 273.773, 586.558 272.419 C 584.292 270.762, 577.588 270.660, 574 272.228 M 166.571 276.571 C 164.303 278.840, 164.640 280.129, 167.324 279.455 C 168.799 279.084, 170.123 279.443, 170.947 280.436 C 172.708 282.558, 174 282.404, 174 280.071 C 174 277.841, 171.479 275, 169.500 275 C 168.754 275, 167.436 275.707, 166.571 276.571 M 336 277.531 C 336 278.339, 336.675 279, 337.500 279 C 338.325 279, 339 278.598, 339 278.107 C 339 277.616, 338.325 276.955, 337.500 276.638 C 336.586 276.288, 336 276.637, 336 277.531 M 587.334 280.791 C 585.593 282.281, 580.042 285.028, 574.997 286.895 C 569.953 288.762, 565.605 290.865, 565.336 291.567 C 565.066 292.269, 565.346 293.779, 565.958 294.922 C 566.967 296.807, 567.276 296.866, 569.285 295.562 C 570.503 294.770, 575.033 292.767, 579.352 291.110 C 590.449 286.851, 592 285.670, 592 281.477 C 592 277.326, 591.473 277.249, 587.334 280.791 M 154.200 280.200 C 153.540 280.860, 153.002 281.873, 153.004 282.450 C 153.009 283.973, 177.591 297, 180.460 297 C 181.799 297, 184.610 293.258, 183.831 292.512 C 183.411 292.110, 156.126 279, 155.709 279 C 155.539 279, 154.860 279.540, 154.200 280.200 M 328.015 279.559 C 328.038 280.941, 329.814 283.520, 330.364 282.969 C 330.624 282.710, 330.198 281.624, 329.418 280.557 C 328.638 279.491, 328.007 279.041, 328.015 279.559 M 353.249 280.032 C 352.011 280.529, 350.323 280.678, 349.499 280.361 C 348.674 280.045, 348 280.229, 348 280.771 C 348 282.329, 350.802 284.241, 352 283.500 C 352.598 283.130, 353.743 283.372, 354.544 284.036 C 355.741 285.030, 356 284.867, 356 283.122 C 356 281.955, 356.450 281, 357 281 C 357.550 281, 358 280.550, 358 280 C 358 278.796, 356.294 278.808, 353.249 280.032 M 333.427 284.521 C 335.482 286.076, 336.630 285.829, 335.541 284.067 C 335.179 283.480, 334.121 283.014, 333.191 283.032 C 331.706 283.060, 331.735 283.241, 333.427 284.521 M 147.750 286.082 C 145.319 287.495, 145.563 289.653, 148.233 290.351 C 150.886 291.044, 152.319 289.889, 151.844 287.439 C 151.415 285.226, 150.018 284.763, 147.750 286.082 M 160 295.269 C 160 296.840, 160.888 298.509, 162.223 299.443 C 164.991 301.382, 165.476 301.381, 167.429 299.429 C 169.690 297.167, 169.374 295.669, 166.777 296.348 C 165.290 296.737, 163.800 296.221, 162.277 294.790 L 160 292.651 160 295.269 M 359.278 306.292 C 352.602 313.006, 346.473 319.175, 345.657 320 C 329.071 336.781, 323.856 341.385, 323.002 340.003 C 322.254 338.793, 321.844 338.756, 320.800 339.800 C 319.756 340.844, 319.782 341.248, 320.944 341.965 C 322.127 342.696, 322.147 343.118, 321.063 344.424 C 319.092 346.799, 322.491 346.540, 324.750 344.142 C 335.164 333.087, 347.454 321.120, 347.917 321.583 C 348.236 321.902, 347.710 322.739, 346.748 323.442 C 345.787 324.145, 345 325.458, 345 326.360 C 345 327.262, 344.413 328, 343.696 328 C 342.979 328, 340.891 329.549, 339.056 331.442 L 335.721 334.884 338.607 337.942 C 340.195 339.624, 342.048 341, 342.726 341 C 344.652 341, 348.393 332.993, 347.081 331.681 C 345.565 330.165, 345.736 329, 347.476 329 C 348.288 329, 349.877 327.313, 351.008 325.250 C 352.410 322.693, 352.859 322.295, 352.419 324 C 352.065 325.375, 351.376 326.928, 350.888 327.450 C 349.393 329.050, 349.894 331.594, 352.095 333.586 C 354.163 335.457, 354.219 335.447, 356.547 332.741 C 357.843 331.233, 359.364 330, 359.926 330 C 361.077 330, 364 324.811, 364 322.768 C 364 321.416, 357.061 318.911, 352.581 318.645 L 350.123 318.500 352.281 316 C 353.468 314.625, 358.479 309.352, 363.418 304.282 C 368.356 299.212, 372.176 294.843, 371.907 294.573 C 371.637 294.304, 365.954 299.577, 359.278 306.292 M 376.589 297 C 377.413 300.121, 379.906 304.875, 379.960 303.429 C 379.982 302.839, 379.084 300.589, 377.964 298.429 C 376.775 296.134, 376.203 295.540, 376.589 297 M 372 300.417 C 372 301.288, 371.325 302, 370.500 302 C 368.439 302, 368.616 304.343, 370.829 306.345 C 373.543 308.801, 375.769 308.508, 373.494 305.994 C 372.496 304.890, 371.965 303.702, 372.314 303.352 C 372.664 303.003, 373.823 303.793, 374.889 305.108 C 377.511 308.343, 378.176 307.271, 376.152 303.073 C 374.367 299.369, 372 297.855, 372 300.417 M 307 301.332 C 297.723 305.671, 290.867 310.629, 286.437 316.201 C 282.615 321.008, 282.294 322, 284.559 322 C 285.416 322, 285.873 321.603, 285.573 321.118 C 284.714 319.729, 288.938 315, 291.037 315 C 293.561 315, 295.131 318.015, 293.824 320.351 C 293.270 321.340, 293.072 322.406, 293.385 322.718 C 293.697 323.031, 294.256 322.434, 294.626 321.393 C 295.341 319.384, 302.796 311.800, 305.745 310.083 C 307.364 309.140, 307.368 309.058, 305.798 309.030 C 304.862 309.014, 302.497 310.646, 300.543 312.658 C 297.348 315.949, 296.740 316.202, 294.495 315.180 C 291.680 313.897, 291.203 311.520, 293.579 310.608 C 294.447 310.275, 297.660 308.341, 300.719 306.311 C 303.777 304.281, 308.354 302.061, 310.890 301.377 C 314.655 300.363, 314.950 300.138, 312.500 300.149 C 310.850 300.156, 308.375 300.689, 307 301.332 M 340.371 302.475 C 339.802 303.960, 346.807 311.527, 347.816 310.517 C 348.275 310.059, 347.714 308.753, 344.513 302.827 C 343.324 300.626, 341.152 300.441, 340.371 302.475 M 326 302.393 C 326 302.609, 326.675 303.045, 327.500 303.362 C 328.325 303.678, 329 303.501, 329 302.969 C 329 302.436, 328.325 302, 327.500 302 C 326.675 302, 326 302.177, 326 302.393 M 314.345 308.543 C 313.401 311.003, 314.523 311.212, 317.108 309.058 L 319.500 307.067 317.219 307.033 C 315.964 307.015, 314.671 307.694, 314.345 308.543 M 321.494 308.009 C 321.118 308.618, 321.722 310.102, 322.836 311.308 C 329.990 319.048, 333.292 322, 334.792 321.996 C 335.933 321.994, 335.501 321.383, 333.492 320.158 C 330.438 318.295, 325 311.912, 325 310.189 C 325 308.485, 322.255 306.779, 321.494 308.009 M 365.389 308.570 C 365.725 309.447, 366.007 310.689, 366.015 311.332 C 366.024 312.002, 366.444 311.861, 367 311 C 368.350 308.911, 368.242 308.307, 366.389 307.596 C 365.209 307.143, 364.941 307.404, 365.389 308.570 M 308.750 308.662 C 309.438 308.940, 310.563 308.940, 311.250 308.662 C 311.938 308.385, 311.375 308.158, 310 308.158 C 308.625 308.158, 308.063 308.385, 308.750 308.662 M 360.388 311.342 C 357.187 314.096, 357.678 317, 361.346 317 C 364.570 317, 366.238 314.795, 365.435 311.596 C 364.632 308.399, 363.856 308.360, 360.388 311.342 M 369 310.066 C 369 310.652, 369.469 312.009, 370.043 313.081 C 370.851 314.589, 370.738 315.163, 369.543 315.622 C 368.010 316.210, 367.316 320.022, 368.750 319.976 C 369.163 319.963, 371.191 319.560, 373.258 319.080 C 375.856 318.476, 377.245 318.561, 377.758 319.353 C 378.637 320.712, 382.545 323, 383.986 323 C 385.571 323, 385.175 320.004, 383.506 319.364 C 381.058 318.425, 382.971 316.838, 385.845 317.424 C 387.761 317.815, 389.266 317.287, 391.250 315.531 C 393.959 313.132, 394.840 311, 393.122 311 C 391.571 311, 384.584 314.169, 381.846 316.114 C 378.884 318.218, 376.945 318.655, 378.800 316.800 C 380.907 314.693, 380.110 313.232, 375.684 311.089 C 370.880 308.763, 369 308.476, 369 310.066 M 338 310.378 C 338 310.585, 338.675 311.315, 339.500 312 C 340.729 313.020, 341 312.951, 341 311.622 C 341 310.730, 340.325 310, 339.500 310 C 338.675 310, 338 310.170, 338 310.378 M 317.602 313.158 C 316.721 314.416, 316.036 316.132, 316.079 316.973 C 316.148 318.312, 316.226 318.315, 316.709 317 C 317.013 316.175, 317.949 314.710, 318.791 313.744 C 319.633 312.778, 320.070 311.736, 319.763 311.429 C 319.455 311.122, 318.483 311.900, 317.602 313.158 M 311.872 313.654 C 311.005 314.700, 310.498 317.828, 310.496 322.154 C 310.492 328.750, 310.581 329, 312.937 329 C 315.233 329, 315.270 328.918, 313.538 327.652 C 311.235 325.968, 312.324 324, 315.559 324 C 317.018 324, 318 323.420, 318 322.559 C 318 320.490, 316.314 319.739, 315.636 321.506 C 314.561 324.309, 312.113 323.119, 311.427 319.460 C 310.927 316.798, 311.202 315.434, 312.536 313.960 C 313.512 312.882, 314.070 312, 313.777 312 C 313.485 312, 312.627 312.745, 311.872 313.654 M 403.750 318.572 C 402.238 319.393, 401 320.773, 401 321.640 C 401 322.826, 400.375 323.060, 398.478 322.584 C 396.601 322.113, 395.787 322.405, 395.294 323.725 C 394.930 324.701, 393.777 326.115, 392.732 326.866 C 391.444 327.791, 391.159 328.559, 391.849 329.249 C 393.264 330.664, 396.087 329.390, 395.415 327.639 C 394.500 325.255, 396.824 324.772, 398.696 326.957 C 400.840 329.462, 402.859 329.581, 403.678 327.250 C 404.016 326.288, 405.411 324.289, 406.776 322.810 C 408.235 321.229, 409.013 319.476, 408.661 318.560 C 407.932 316.658, 407.275 316.660, 403.750 318.572 M 366.336 323.250 C 365.229 324.488, 363.725 327.075, 362.994 329 C 362.263 330.925, 361.285 333.002, 360.822 333.615 C 360.241 334.384, 360.990 334.701, 363.229 334.635 C 365.565 334.566, 366.574 335.026, 366.813 336.270 C 367.076 337.634, 366.433 338, 363.773 338 C 360.448 338, 360.382 338.087, 359.139 344.106 C 358.445 347.464, 358.111 350.445, 358.397 350.730 C 358.682 351.015, 360.323 350.065, 362.042 348.618 C 365.170 345.986, 367 345.930, 367 348.465 C 367 349.537, 367.699 349.598, 370.412 348.766 C 374.692 347.452, 377.009 348.249, 376.341 350.804 C 375.903 352.478, 376.505 352.794, 380.941 353.220 C 386.825 353.786, 387.764 354.375, 386.056 356.432 C 384.260 358.596, 385.399 359.646, 390.268 360.313 C 392.645 360.639, 395.358 361.200, 396.295 361.560 C 397.445 362.001, 398 361.715, 398 360.680 C 398 358.954, 391.234 353, 389.272 353 C 388.572 353, 388 352.561, 388 352.025 C 388 351.480, 389.294 351.309, 390.937 351.637 L 393.875 352.225 393.498 347.606 C 393.165 343.510, 393.466 342.666, 396.164 340.145 C 398.910 337.578, 399.075 337.093, 397.862 335.151 C 396.446 332.883, 392.430 332.209, 391.789 334.132 C 391.528 334.915, 390.438 334.761, 388.256 333.632 C 386.520 332.734, 384.402 332, 383.550 332 C 382.154 332, 381.553 330.830, 381.882 328.750 C 382.101 327.358, 380.219 327.987, 379.638 329.500 C 378.787 331.719, 376 331.336, 376 329 C 376 327.900, 376.648 327, 377.441 327 C 379.214 327, 380.336 325.353, 379.493 323.989 C 378.831 322.917, 373 328.141, 373 329.806 C 373 330.886, 369.071 331.857, 367.212 331.237 C 365.261 330.587, 365.819 329, 368 329 C 369.566 329, 370.025 328.295, 370.116 325.750 C 370.180 323.962, 370.438 323.288, 370.689 324.250 C 371.242 326.364, 374 326.602, 374 324.535 C 374 323.136, 371.124 321, 369.240 321 C 368.750 321, 367.443 322.012, 366.336 323.250 M 288.269 323.693 C 289.242 323.947, 290.592 323.930, 291.269 323.656 C 291.946 323.382, 291.150 323.175, 289.500 323.195 C 287.850 323.215, 287.296 323.439, 288.269 323.693 M 422.250 323.689 C 423.212 323.941, 424.788 323.941, 425.750 323.689 C 426.712 323.438, 425.925 323.232, 424 323.232 C 422.075 323.232, 421.288 323.438, 422.250 323.689 M 437.762 323.707 C 439.006 323.946, 440.806 323.937, 441.762 323.687 C 442.718 323.437, 441.700 323.241, 439.500 323.252 C 437.300 323.263, 436.518 323.468, 437.762 323.707 M 445 324.756 C 445 325.172, 446.462 326.153, 448.250 326.938 C 450.038 327.722, 452.064 329.069, 452.752 329.932 C 453.868 331.328, 453.939 331.311, 453.403 329.770 C 453.072 328.819, 451.331 327.131, 449.533 326.020 C 446.020 323.849, 445 323.565, 445 324.756 M 383 327 C 383 327.550, 383.450 328, 384 328 C 384.550 328, 385 327.550, 385 327 C 385 326.450, 384.550 326, 384 326 C 383.450 326, 383 326.450, 383 327 M 436 328.727 C 437.375 328.978, 439.288 329.886, 440.250 330.746 C 441.277 331.664, 442 331.847, 442 331.190 C 442 329.646, 438.611 327.972, 435.816 328.136 C 433.587 328.267, 433.594 328.289, 436 328.727 M 446 329.500 C 446 330.417, 446.484 331.005, 447.075 330.808 C 447.666 330.611, 448.150 330.022, 448.150 329.500 C 448.150 328.978, 447.666 328.389, 447.075 328.192 C 446.484 327.995, 446 328.583, 446 329.500 M 397.667 329.667 C 396.516 330.817, 396.938 332, 398.500 332 C 399.325 332, 400 331.325, 400 330.500 C 400 328.938, 398.817 328.516, 397.667 329.667 M 401.192 334.075 C 401.389 334.666, 401.978 335.150, 402.500 335.150 C 403.022 335.150, 403.611 334.666, 403.808 334.075 C 404.005 333.484, 403.417 333, 402.500 333 C 401.583 333, 400.995 333.484, 401.192 334.075 M 442.500 333.794 C 441.950 334.214, 439.250 337.011, 436.500 340.010 C 433.750 343.008, 432.654 344.458, 434.064 343.231 C 437.956 339.845, 439.552 340.371, 437.155 344.250 C 436.050 346.038, 435.056 347.950, 434.946 348.500 C 434.835 349.050, 434.538 350.042, 434.283 350.704 C 434.029 351.366, 434.460 352.819, 435.240 353.932 C 436.604 355.880, 436.971 355.655, 444.829 348.046 C 449.323 343.695, 453 339.329, 453 338.345 C 453 336.901, 452.681 337.033, 451.351 339.027 C 449.043 342.487, 442.844 348.971, 440.750 350.114 C 438.007 351.613, 438.577 348.977, 441.755 345.469 C 445.239 341.623, 449.237 336, 448.488 336 C 448.174 336, 446.923 336.937, 445.708 338.082 C 443.069 340.570, 440 342.343, 440 341.380 C 440 341, 441.125 339.214, 442.500 337.411 C 443.875 335.608, 445 333.878, 445 333.567 C 445 332.769, 443.685 332.889, 442.500 333.794 M 329.218 341.278 L 325 345.576 326.889 349.282 C 328.777 352.986, 328.779 352.987, 330.214 350.744 C 331.003 349.510, 331.939 347.712, 332.293 346.750 C 332.647 345.788, 333.605 345, 334.421 345 C 335.542 345, 335.977 346.525, 336.202 351.250 C 336.366 354.688, 336.932 357.458, 337.461 357.408 C 337.990 357.357, 339.340 356.084, 340.461 354.580 C 342.389 351.993, 342.404 351.774, 340.750 350.562 C 339.788 349.857, 339 348.303, 339 347.108 C 339 345.914, 338.325 344.678, 337.500 344.362 C 336.675 344.045, 336.036 343.047, 336.079 342.143 C 336.129 341.105, 336.344 340.961, 336.662 341.750 C 337.338 343.423, 340 343.352, 340 341.661 C 340 340.924, 338.762 339.701, 337.250 338.943 C 335.738 338.184, 334.261 337.433, 333.969 337.272 C 333.676 337.111, 331.539 338.913, 329.218 341.278 M 411 338 C 411 338.550, 411.450 339, 412 339 C 412.550 339, 413 338.550, 413 338 C 413 337.450, 412.550 337, 412 337 C 411.450 337, 411 337.450, 411 338 M 382.750 339.833 C 384.744 341.922, 385.522 341.804, 384.655 339.543 C 384.329 338.694, 383.374 338, 382.531 338 C 381.236 338, 381.269 338.282, 382.750 339.833 M 400.154 339.438 C 400.345 340.355, 400.950 341.082, 401.500 341.053 C 402.984 340.974, 402.712 338.737, 401.154 338.218 C 400.313 337.938, 399.939 338.395, 400.154 339.438 M 351.188 346.601 L 346.936 352.097 350.888 349.822 C 353.655 348.230, 355.017 346.667, 355.427 344.614 C 355.750 343.001, 355.885 341.551, 355.727 341.393 C 355.569 341.235, 353.526 343.579, 351.188 346.601 M 289.200 343.200 C 288.540 343.860, 288 345.183, 288 346.141 C 288 347.099, 287.540 348.166, 286.979 348.513 C 286.381 348.883, 286.900 349.912, 288.229 350.994 C 290.493 352.837, 290.502 352.833, 291.077 349.671 C 291.394 347.927, 291.987 345.488, 292.394 344.250 C 293.222 341.736, 291.297 341.103, 289.200 343.200 M 343.345 346.543 C 343.019 347.392, 343.004 348.337, 343.310 348.643 C 344.186 349.519, 346 348.034, 346 346.441 C 346 344.522, 344.092 344.596, 343.345 346.543 M 430.157 348.555 C 428.617 351.936, 428.677 355.450, 430.220 352.250 C 430.817 351.012, 431.912 350, 432.653 350 C 434.380 350, 434.382 348.562, 432.657 347.130 C 431.614 346.265, 431.055 346.583, 430.157 348.555 M 385.015 348.191 C 385.007 349.121, 385.450 350.160, 386 350.500 C 387.266 351.282, 387.266 349.958, 386 348 C 385.165 346.707, 385.029 346.734, 385.015 348.191 M 318.500 356.074 C 311.853 361.425, 304.911 364.938, 300.371 365.248 C 297.893 365.416, 295.753 366.411, 293.910 368.250 C 291.993 370.163, 291.615 371, 292.671 371 C 293.505 371, 294.405 371.831, 294.670 372.847 C 295.020 374.185, 295.820 374.566, 297.577 374.230 C 299.542 373.854, 300 374.179, 300 375.949 C 300 377.149, 299.550 378.972, 299.001 379.999 C 298.202 381.492, 298.405 381.994, 300.015 382.505 C 301.123 382.856, 301.821 383.481, 301.566 383.894 C 300.730 385.245, 304.655 387.832, 306.127 386.900 C 308.554 385.363, 311.026 385.939, 311.915 388.250 C 312.392 389.488, 314.180 391.526, 315.891 392.780 C 317.601 394.034, 319 395.946, 319 397.030 C 319 399.418, 317.284 399.567, 314.877 397.389 C 313.331 395.989, 312.422 395.939, 307.967 397.008 C 302.237 398.383, 302.459 399.705, 308.500 400.183 C 312.184 400.475, 312.475 400.711, 312.188 403.176 C 311.888 405.749, 312.050 405.845, 316.382 405.678 C 319.908 405.541, 321.344 405.993, 322.983 407.752 C 325.851 410.829, 327.480 410.578, 329.886 406.685 C 331.402 404.231, 331.780 402.418, 331.339 399.704 C 330.929 397.175, 331.249 395.269, 332.372 393.555 C 334.305 390.605, 334.449 389.604, 332.795 390.627 C 330.241 392.205, 325.509 392.049, 324.262 390.344 C 323.179 388.863, 322.705 388.820, 320.491 390.005 C 317.298 391.714, 315.277 390.220, 316.838 387.303 C 318.207 384.745, 316.639 381.961, 314.842 383.758 C 312.039 386.561, 306.990 383.545, 306.492 378.772 C 306.362 377.522, 306.198 375.938, 306.128 375.250 C 306.057 374.563, 305.325 374, 304.500 374 C 299.904 374, 305.602 366.354, 313.577 361.819 C 318.984 358.744, 324.245 354.230, 323.832 353.020 C 323.649 352.485, 321.250 353.860, 318.500 356.074 M 368.250 353.277 C 367.012 353.843, 366 354.687, 366 355.153 C 366 356.656, 370.043 356.052, 370.655 354.457 C 371.464 352.347, 370.895 352.068, 368.250 353.277 M 471.703 355.608 C 470.280 357.503, 470.202 358, 471.331 358 C 473.255 358, 475.050 355.695, 474.193 354.325 C 473.747 353.611, 472.860 354.069, 471.703 355.608 M 357.861 355.967 C 355.215 358.171, 355.651 358.463, 359.435 357.025 C 360.846 356.488, 362 355.588, 362 355.025 C 362 353.450, 360.462 353.800, 357.861 355.967 M 310.500 356 C 310.160 356.550, 310.359 357, 310.941 357 C 311.523 357, 312 356.550, 312 356 C 312 355.450, 311.802 355, 311.559 355 C 311.316 355, 310.840 355.450, 310.500 356 M 346.315 359.915 C 343.134 364.342, 340.406 366.369, 338.891 365.433 C 338.326 365.083, 338.127 364.056, 338.449 363.149 C 338.771 362.242, 337.350 363.525, 335.291 366 C 333.232 368.475, 330.074 372.007, 328.274 373.850 C 326.473 375.692, 325 377.318, 325 377.461 C 325 378.422, 330.632 376.368, 332.144 374.856 C 334.318 372.682, 335.229 372.634, 340.250 374.426 C 343.652 375.640, 344 375.604, 344 374.037 C 344 373.087, 344.904 371.492, 346.008 370.493 C 347.880 368.799, 347.905 368.552, 346.370 366.856 C 345.028 365.373, 344.957 364.757, 345.984 363.519 C 346.678 362.683, 347.865 362, 348.622 362 C 349.380 362, 350 361.362, 350 360.582 C 350 359.802, 350.273 358.452, 350.607 357.582 C 351.760 354.578, 349.121 356.013, 346.315 359.915 M 377.075 356.954 C 376.200 357.495, 376.449 357.884, 377.914 358.267 C 379.060 358.567, 380.221 358.452, 380.493 358.011 C 381.204 356.861, 378.552 356.041, 377.075 356.954 M 320.702 361.125 C 316.021 365.138, 315.911 365.361, 316.202 370.290 C 316.366 373.069, 316.978 375.500, 317.562 375.692 C 318.146 375.884, 320.451 371.757, 322.686 366.521 C 324.920 361.284, 326.467 357.003, 326.124 357.006 C 325.781 357.010, 323.341 358.864, 320.702 361.125 M 429 358.473 C 429 360.907, 433.679 368.476, 435.399 368.823 C 436.657 369.077, 436.979 368.328, 436.900 365.323 C 436.823 362.350, 436.656 362.013, 436.150 363.809 C 435.793 365.079, 435.050 366.153, 434.500 366.197 C 433.163 366.302, 431.033 362.056, 431.015 359.250 C 431.007 358.012, 430.550 357, 430 357 C 429.450 357, 429 357.663, 429 358.473 M 286 359 C 286 359.550, 286.450 360, 287 360 C 287.550 360, 288 359.550, 288 359 C 288 358.450, 287.550 358, 287 358 C 286.450 358, 286 358.450, 286 359 M 407.017 359.921 C 407.008 360.703, 407.768 362.191, 408.706 363.227 C 410.103 364.771, 410.192 365.463, 409.197 367.056 C 408.529 368.125, 408.407 369, 408.924 369 C 411.009 369, 411.105 364.857, 409.095 361.718 C 407.961 359.948, 407.026 359.140, 407.017 359.921 M 462.641 362.626 C 460.677 366.745, 461.197 366.852, 465.163 363.145 C 467.988 360.506, 468.068 360.251, 466.234 359.771 C 464.721 359.376, 463.868 360.054, 462.641 362.626 M 491 360.941 C 491 361.459, 491.450 362.160, 492 362.500 C 492.550 362.840, 493 362.416, 493 361.559 C 493 360.702, 492.550 360, 492 360 C 491.450 360, 491 360.423, 491 360.941 M 367 362.583 C 367 364.349, 369.153 364.042, 369.771 362.188 C 369.989 361.534, 369.454 361, 368.583 361 C 367.712 361, 367 361.712, 367 362.583 M 282 363.941 C 282 366.615, 283.001 366.941, 286.500 365.406 C 289.062 364.282, 289.180 364.084, 287.309 364.045 C 286.104 364.020, 284.840 363.550, 284.500 363 C 283.467 361.329, 282 361.881, 282 363.941 M 387.991 364.489 C 388.671 365.308, 389.674 365.702, 390.220 365.364 C 390.824 364.991, 390.681 364.413, 389.857 363.890 C 387.700 362.524, 386.641 362.863, 387.991 364.489 M 485.500 365 C 485.160 365.550, 485.332 366, 485.882 366 C 486.432 366, 487.160 365.550, 487.500 365 C 487.840 364.450, 487.668 364, 487.118 364 C 486.568 364, 485.840 364.450, 485.500 365 M 362 366 C 362 366.550, 362.450 367, 363 367 C 363.550 367, 364 366.550, 364 366 C 364 365.450, 363.550 365, 363 365 C 362.450 365, 362 365.450, 362 366 M 369.746 367.250 C 369.081 369.227, 370.110 372, 371.510 372 C 373.099 372, 374.128 369.498, 373.362 367.500 C 372.664 365.681, 370.328 365.520, 369.746 367.250 M 455.237 369.442 C 454.014 370.849, 452.572 372, 452.032 372 C 451.493 372, 450.353 373.350, 449.500 375 C 448.585 376.769, 447.153 378, 446.010 378 C 444.943 378, 443.605 378.870, 443.035 379.934 C 441.746 382.344, 441.733 383, 442.978 383 C 444.581 383, 458.237 369.210, 457.833 367.999 C 457.629 367.386, 456.461 368.035, 455.237 369.442 M 479 368.882 C 479 369.432, 479.450 370.160, 480 370.500 C 480.550 370.840, 481 370.668, 481 370.118 C 481 369.568, 480.550 368.840, 480 368.500 C 479.450 368.160, 479 368.332, 479 368.882 M 381.195 371.500 C 381.215 373.150, 381.439 373.704, 381.693 372.731 C 381.947 371.758, 381.930 370.408, 381.656 369.731 C 381.382 369.054, 381.175 369.850, 381.195 371.500 M 284.872 371.313 C 286.373 373.157, 289 373.595, 289 372 C 289 371.450, 288.587 371, 288.082 371 C 287.577 371, 286.339 370.691, 285.332 370.313 C 283.719 369.708, 283.664 369.828, 284.872 371.313 M 357.543 370.931 C 356.860 372.036, 358.437 373.230, 359.361 372.306 C 360.311 371.355, 360.134 370, 359.059 370 C 358.541 370, 357.859 370.419, 357.543 370.931 M 350.892 371 C 350.797 371.275, 350.609 373.300, 350.473 375.500 C 350.290 378.467, 350.868 380.356, 352.713 382.814 C 354.127 384.699, 354.989 386.933, 354.711 387.995 C 353.966 390.846, 357.521 394, 361.480 394 C 363.351 394, 365.160 393.550, 365.500 393 C 365.840 392.450, 365.143 392, 363.952 392 C 362.438 392, 361.959 391.549, 362.362 390.500 C 362.782 389.405, 362.239 389, 360.352 389 C 358.174 389, 357.838 388.628, 358.218 386.638 C 358.522 385.051, 358.043 383.883, 356.759 383.082 C 354.141 381.447, 356.197 379, 360.188 379 C 363.962 379, 367 377.369, 367 375.342 C 367 374.152, 366.674 374.025, 365.698 374.836 C 364.982 375.430, 363.453 375.670, 362.300 375.368 C 361.148 375.067, 359.192 375.362, 357.956 376.024 C 356.151 376.990, 355.552 376.958, 354.922 375.864 C 353.543 373.468, 351.070 370.483, 350.892 371 M 387.200 375.200 C 385.567 376.833, 385.692 378, 387.500 378 C 388.333 378, 389 377.111, 389 376 C 389 373.669, 388.814 373.586, 387.200 375.200 M 394.079 379.583 C 394.127 380.748, 394.364 380.985, 394.683 380.188 C 394.972 379.466, 394.936 378.603, 394.604 378.271 C 394.272 377.939, 394.036 378.529, 394.079 379.583 M 405.500 380.621 C 412.441 386.518, 413.865 386.992, 424.635 386.996 C 430.512 386.998, 436.009 386.475, 437.720 385.750 C 440.524 384.561, 440.584 384.412, 438.949 382.696 C 437.298 380.963, 437.147 380.998, 435.132 383.560 C 432.939 386.348, 430 386.331, 430 383.531 C 430 381.514, 429.326 381.599, 426.273 384 C 423.283 386.352, 421.152 386.561, 420.391 384.576 C 420.003 383.564, 418.854 383.312, 416.430 383.705 C 412.592 384.328, 410 382.785, 410 379.878 C 410 378.368, 409.265 378.007, 406.250 378.036 L 402.500 378.072 405.500 380.621 M 379.655 380.829 C 377.463 383.251, 377.558 385, 379.883 385 C 381.510 385, 382.935 382.590, 382.986 379.750 C 383.011 378.416, 381.353 378.953, 379.655 380.829 M 490 380.032 C 488.667 380.892, 488.667 381.108, 490 381.968 C 491.538 382.960, 492.494 381.951, 491.833 380.032 C 491.618 379.408, 490.967 379.408, 490 380.032 M 262 382 C 262 382.550, 262.450 383, 263 383 C 263.550 383, 264 382.550, 264 382 C 264 381.450, 263.550 381, 263 381 C 262.450 381, 262 381.450, 262 382 M 269 382 C 269 382.550, 269.450 383, 270 383 C 270.550 383, 271 382.550, 271 382 C 271 381.450, 270.550 381, 270 381 C 269.450 381, 269 381.450, 269 382 M 274.344 385.295 C 273.228 389.188, 271.675 389.675, 268.979 386.979 C 267.799 385.799, 266.557 385.109, 266.220 385.447 C 265.882 385.784, 266.715 387.169, 268.070 388.524 C 270.898 391.352, 279.579 393.894, 288.221 394.424 C 294.032 394.781, 294.085 394.760, 292.699 392.643 C 290.926 389.935, 284.735 385.834, 279.359 383.808 L 275.219 382.247 274.344 385.295 M 369.265 384.628 C 367.272 386.865, 367.228 387.148, 368.786 387.722 C 371.163 388.599, 372.055 390.176, 371.387 392.322 C 370.710 394.495, 373.582 398, 376.040 398 C 377.926 398, 381 393.993, 381 391.535 C 381 390.691, 380.178 390, 379.174 390 C 377.202 390, 373 386.083, 373 384.245 C 373 382.040, 371.426 382.201, 369.265 384.628 M 387.776 383.913 C 386.845 385.240, 386.343 386.746, 386.660 387.259 C 387.567 388.726, 390.234 385.452, 389.831 383.368 C 389.504 381.680, 389.306 381.732, 387.776 383.913 M 399 385.500 C 399 388.309, 400.160 388.717, 401.964 386.544 C 403.354 384.869, 402.551 383, 400.441 383 C 399.571 383, 399 383.990, 399 385.500 M 335 384.809 C 335 385.254, 335.645 386.491, 336.433 387.559 C 337.614 389.160, 338.096 389.271, 339.183 388.191 C 340.271 387.109, 340.196 386.997, 338.750 387.548 C 337.426 388.052, 337 387.701, 337 386.107 C 337 384.948, 336.550 384, 336 384 C 335.450 384, 335 384.364, 335 384.809 M 458.500 387.753 C 454.688 392.339, 445.196 399.358, 437.649 403.173 C 434.431 404.800, 432.003 406.336, 432.254 406.587 C 433.435 407.768, 444.165 402.366, 449.899 397.703 C 456.175 392.600, 464.113 383.930, 462.379 384.072 C 461.896 384.112, 460.150 385.768, 458.500 387.753 M 451.500 387 C 451.160 387.550, 451.359 388, 451.941 388 C 452.523 388, 453 387.550, 453 387 C 453 386.450, 452.802 386, 452.559 386 C 452.316 386, 451.840 386.450, 451.500 387 M 393.667 387.667 C 392.629 388.704, 392.883 392, 394 392 C 394.550 392, 395 390.875, 395 389.500 C 395 386.882, 394.769 386.564, 393.667 387.667 M 486.500 388 C 485.684 389.320, 486.880 391.192, 488.069 390.457 C 489.284 389.707, 489.276 387, 488.059 387 C 487.541 387, 486.840 387.450, 486.500 388 M 407 391 C 407 394.449, 407.261 394.597, 409.463 392.394 C 410.703 391.154, 410.805 390.470, 409.912 389.394 C 408.069 387.173, 407 387.763, 407 391 M 399.472 393.031 C 397.759 394.923, 397.747 395.176, 399.293 396.722 C 401.272 398.701, 401.557 398.479, 402.463 394.250 C 403.261 390.525, 402.149 390.072, 399.472 393.031 M 414.584 393.641 C 414.057 395.014, 414.204 395.076, 415.477 394.019 C 417.212 392.579, 417.393 392, 416.107 392 C 415.616 392, 414.931 392.739, 414.584 393.641 M 427.607 393.582 C 427.273 394.452, 427.010 395.914, 427.022 396.832 C 427.039 398.114, 427.497 397.922, 429 396 C 430.076 394.625, 430.966 393.163, 430.978 392.750 C 431.020 391.316, 428.210 392.010, 427.607 393.582 M 421.667 393.667 C 421.300 394.033, 421.014 395.046, 421.030 395.917 C 421.055 397.217, 421.251 397.174, 422.122 395.675 C 423.199 393.823, 422.887 392.447, 421.667 393.667 M 439.667 394.667 C 439.300 395.033, 439 395.798, 439 396.367 C 439 396.993, 439.466 396.934, 440.183 396.217 C 440.834 395.566, 441.134 394.801, 440.850 394.517 C 440.566 394.233, 440.033 394.300, 439.667 394.667 M 299.813 397.683 C 300.534 397.972, 301.397 397.936, 301.729 397.604 C 302.061 397.272, 301.471 397.036, 300.417 397.079 C 299.252 397.127, 299.015 397.364, 299.813 397.683 M 356 399.583 C 356 402.716, 358.348 402.373, 358.820 399.172 C 359.032 397.729, 358.612 397, 357.570 397 C 356.549 397, 356 397.903, 356 399.583 M 368 398.941 C 368 400.073, 368.450 401, 369 401 C 369.550 401, 370 400.352, 370 399.559 C 370 398.766, 369.550 397.840, 369 397.500 C 368.450 397.160, 368 397.809, 368 398.941 M 392.489 398.908 C 394.384 401.078, 398 403.536, 398 402.654 C 398 402.425, 396.313 400.976, 394.250 399.434 C 391.179 397.138, 390.860 397.043, 392.489 398.908 M 406 400 C 406 400.550, 406.450 401, 407 401 C 407.550 401, 408 400.550, 408 400 C 408 399.450, 407.550 399, 407 399 C 406.450 399, 406 399.450, 406 400 M 414.200 400.200 C 412.437 401.963, 412.733 403, 415 403 C 416.333 403, 417 402.333, 417 401 C 417 398.733, 415.963 398.437, 414.200 400.200 M 401.500 405 C 401.840 405.550, 402.568 406, 403.118 406 C 403.668 406, 403.840 405.550, 403.500 405 C 403.160 404.450, 402.432 404, 401.882 404 C 401.332 404, 401.160 404.450, 401.500 405 M 298 407.020 C 298 409.038, 298.361 409.203, 301.624 408.674 C 307.642 407.697, 307.686 406.587, 301.750 405.478 C 298.323 404.838, 298 404.971, 298 407.020 M 474.339 410.624 C 472.601 412.476, 471.523 414.205, 471.944 414.465 C 472.660 414.908, 474.827 412.835, 477.920 408.750 C 480.183 405.761, 477.665 407.078, 474.339 410.624 M 454.557 419.582 C 452.935 420.768, 452.885 421, 454.250 421 C 455.148 421, 456.179 420.520, 456.541 419.933 C 457.601 418.218, 456.652 418.050, 454.557 419.582 M 311.172 426.434 C 311.896 429.713, 373.571 552.905, 374.511 552.951 C 375.067 552.978, 383.006 537.813, 392.154 519.250 C 401.301 500.688, 415.584 471.876, 423.893 455.225 L 439 424.950 422.988 425.225 L 406.976 425.500 402.462 435.500 C 399.979 441, 392.907 456.863, 386.745 470.750 C 380.583 484.637, 375.082 495.998, 374.521 495.996 C 373.959 495.993, 366.468 480.131, 357.872 460.746 L 342.245 425.500 326.544 425.224 C 313.080 424.988, 310.890 425.160, 311.172 426.434 M 223.073 474.635 C 221.715 476.360, 221 478.734, 221 481.512 C 221 484.198, 220.407 486.247, 219.385 487.095 C 218.001 488.244, 217.502 488.103, 215.885 486.107 C 214.848 484.826, 214 482.751, 214 481.496 C 214 478.984, 211.244 477.356, 209.665 478.935 C 208.210 480.390, 210.639 487.730, 213.531 490.622 C 218.889 495.980, 226 491.911, 226 483.488 C 226 480.802, 226.593 478.753, 227.615 477.905 C 228.999 476.756, 229.498 476.897, 231.115 478.893 C 232.152 480.174, 233 482.072, 233 483.111 C 233 485.125, 236.385 485.803, 237.493 484.012 C 238.434 482.489, 234.440 474.306, 232.160 473.086 C 228.704 471.236, 225.288 471.818, 223.073 474.635 M 509.616 475.293 C 506.773 478.136, 503.349 486.768, 504.596 487.947 C 505.918 489.197, 524.648 497, 526.326 497 C 528.082 497, 532 488.189, 532 484.239 C 532 482.474, 531.057 480.463, 529.578 479.073 C 527.541 477.160, 526.507 476.907, 523.078 477.487 C 520.530 477.917, 519 477.794, 519 477.159 C 519 475.457, 515.977 473, 513.883 473 C 512.797 473, 510.877 474.032, 509.616 475.293 M 511.250 479.662 C 509.458 480.386, 509.706 484.673, 511.582 485.393 C 514.391 486.471, 515.851 486.045, 516.515 483.952 C 517.592 480.559, 514.755 478.248, 511.250 479.662 M 520.571 484.571 C 518.010 487.133, 519.015 488.994, 523.742 490.442 C 525.521 490.988, 526.222 490.606, 527.139 488.594 C 529.211 484.047, 524.178 480.965, 520.571 484.571 M 230.044 493.918 C 229.471 494.989, 227.989 496.179, 226.751 496.563 C 222.291 497.948, 218.999 501.035, 219.015 503.818 C 219.024 505.293, 219.428 507.128, 219.914 507.896 C 221.128 509.813, 224 508.517, 224 506.052 C 224 504.726, 225.310 503.372, 227.845 502.079 C 231.346 500.293, 231.830 500.259, 233.267 501.696 C 235.253 503.681, 238.217 502.729, 237.321 500.393 C 236.915 499.337, 237.378 498.196, 238.565 497.328 C 241.324 495.311, 239.256 492.599, 234.692 492.249 C 231.962 492.040, 230.832 492.445, 230.044 493.918 M 499.607 495.582 C 499.273 496.452, 499 497.381, 499 497.647 C 499 497.913, 502.341 499.674, 506.424 501.560 C 510.506 503.446, 514.556 505.699, 515.424 506.566 C 517.714 508.857, 517.357 511.720, 514.553 513.557 C 512.229 515.080, 511.708 514.980, 504.177 511.580 C 499.816 509.611, 495.773 508, 495.192 508 C 494.176 508, 492.457 511.794, 493.159 512.489 C 494.533 513.849, 510.361 520, 512.489 520 C 516.096 520, 520.679 515.228, 521.555 510.561 C 522.543 505.294, 520.069 502.312, 510.966 497.796 C 502.662 493.676, 500.500 493.254, 499.607 495.582 M 224.709 512.624 C 223.470 513.863, 223.945 517.765, 225.403 518.324 C 227.470 519.118, 230.274 516.664, 229.849 514.434 C 229.479 512.499, 226.044 511.289, 224.709 512.624 M 485.667 525.667 C 485.300 526.033, 485 527.124, 485 528.090 C 485 529.336, 488.086 531.320, 495.629 534.923 C 501.474 537.715, 506.553 540, 506.914 540 C 508.007 540, 514.085 526.947, 513.462 525.938 C 512.211 523.915, 509.947 525.184, 508 529 C 506.878 531.200, 505.509 533, 504.957 533 C 504.406 533, 500.376 531.200, 496 529 C 487.765 524.860, 486.789 524.545, 485.667 525.667 M 247.333 531.097 C 237.914 533.824, 236.330 545.126, 243.982 555 L 245.920 557.500 251.210 554.611 C 258.440 550.662, 258.381 550.761, 255.929 546.605 C 253.481 542.455, 251.655 542.348, 251.184 546.328 C 251.009 547.798, 250.028 549.450, 249.003 549.998 C 244.499 552.409, 241.979 543.021, 246.040 538.960 C 251.811 533.189, 258.810 535.111, 261.933 543.325 C 262.654 545.220, 263.579 546.026, 264.753 545.782 C 268.956 544.907, 263.363 533.885, 257.466 531.421 C 253.651 529.827, 251.912 529.772, 247.333 531.097 M 479.184 537.886 C 473.468 548.057, 479.526 559, 490.874 559 C 493.732 559, 495.748 558.242, 498.059 556.297 C 501.415 553.473, 504.489 547.601, 503.473 545.956 C 502.408 544.233, 499.968 544.954, 499.090 547.250 C 496.905 552.963, 490.661 554.974, 485.534 551.614 C 481.328 548.858, 480.583 545.493, 483.051 540.396 C 486.444 533.386, 482.978 531.136, 479.184 537.886 M 260.525 556.605 C 255.588 559.585, 250.988 562.583, 250.302 563.269 C 249.307 564.265, 249.850 565.773, 253.002 570.758 C 256.775 576.724, 260 578.849, 260 575.368 C 260 574.470, 259.055 572.208, 257.901 570.340 C 256.213 567.609, 256.041 566.655, 257.023 565.472 C 259.101 562.968, 261.936 563.777, 264.133 567.500 C 266.367 571.288, 266.993 571.607, 268.746 569.854 C 269.607 568.993, 269.346 567.760, 267.696 564.891 C 265.576 561.206, 265.563 561.011, 267.313 559.287 C 269.055 557.569, 269.211 557.601, 271.313 560.106 C 272.516 561.539, 274.019 563.564, 274.652 564.606 C 275.678 566.291, 275.973 566.335, 277.328 565 C 278.691 563.659, 278.464 562.842, 275.176 557.271 C 273.154 553.845, 271.050 551.074, 270.500 551.115 C 269.950 551.155, 265.461 553.626, 260.525 556.605 M 457.536 574.732 C 454.364 579.400, 454.228 584.203, 457.189 586.961 C 460.038 589.615, 461.700 589.533, 467.499 586.450 C 470.137 585.047, 472.904 584.133, 473.648 584.418 C 475.777 585.235, 475.234 588.568, 472.428 591.903 C 469.871 594.942, 469.888 597, 472.470 597 C 474.253 597, 478.839 591.491, 479.609 588.423 C 480.589 584.515, 479.199 581.154, 475.894 579.445 C 472.954 577.925, 472.579 577.974, 467.472 580.558 C 462.472 583.088, 459 583.313, 459 581.108 C 459 580.583, 460.173 578.760, 461.606 577.057 C 463.730 574.532, 463.984 573.686, 462.983 572.480 C 461.158 570.280, 460.328 570.623, 457.536 574.732 M 274.500 573.526 C 268.298 575.682, 265 579.993, 265 585.945 C 265 590.149, 265.486 591.372, 268.368 594.429 C 271.202 597.434, 272.409 598, 275.982 598 C 284.109 598, 291.017 591.944, 290.985 584.846 C 290.946 576.012, 283.016 570.566, 274.500 573.526 M 331.626 574.517 C 329.497 576.646, 329.553 576.880, 332.466 577.987 C 334.850 578.893, 334.941 579.282, 335.216 589.712 C 335.448 598.508, 335.777 600.500, 337 600.500 C 338.259 600.500, 338.500 598.333, 338.500 587 L 338.500 573.500 335.876 573.196 C 334.424 573.027, 332.525 573.618, 331.626 574.517 M 354.635 575.073 C 352.587 576.683, 352 578.021, 352 581.073 C 352 584.988, 353.451 587.212, 357.561 589.592 C 359.407 590.661, 359.406 590.773, 357.537 594.918 C 355.942 598.455, 355.856 599.293, 357.016 600.010 C 359.076 601.283, 359.684 600.585, 364.027 591.947 C 368.826 582.402, 369.170 578.065, 365.365 575.073 C 363.916 573.933, 361.502 573, 360 573 C 358.498 573, 356.084 573.933, 354.635 575.073 M 377.306 575.430 C 375.043 577.391, 374.744 578.108, 375.760 579.140 C 376.782 580.178, 377.566 580.097, 379.920 578.707 C 385.261 575.551, 388.667 580.023, 383.500 583.408 C 380.291 585.510, 380.347 586.579, 383.750 588.205 C 386.779 589.652, 387.861 593.258, 385.954 595.555 C 384.273 597.580, 381.629 597.353, 379.500 595 C 377.355 592.630, 374 592.352, 374 594.545 C 374 597.657, 378.662 601, 383 601 C 390.799 601, 394.926 592.744, 389.836 587.325 C 387.807 585.165, 387.775 584.906, 389.336 583.182 C 391.539 580.747, 391.435 578.822, 388.927 575.635 C 386.186 572.150, 381.194 572.062, 377.306 575.430 M 403.301 573.833 C 402.231 574.515, 400 583.487, 400 587.110 C 400 588.922, 400.439 589.057, 404.411 588.461 C 408.278 587.881, 408.966 588.067, 409.982 589.967 C 410.909 591.698, 410.821 592.624, 409.548 594.567 C 407.666 597.440, 406.741 597.551, 403.016 595.350 C 399.985 593.560, 396.720 594.106, 397.548 596.265 C 398.334 598.312, 403.472 601, 406.600 601 C 410.889 601, 415 596.504, 415 591.813 C 415 587.921, 412.336 584, 409.691 584 C 407.257 584, 404.862 581.524, 405.553 579.724 C 406.023 578.497, 407.346 578, 410.138 578 C 414.250 578, 416.558 575.581, 413.972 573.982 C 412.385 573.002, 404.774 572.896, 403.301 573.833 M 275.900 579 C 268.914 582.675, 267.072 589.709, 272.454 592.161 C 279.461 595.354, 289.246 585.511, 284.750 579.792 C 282.741 577.237, 279.759 576.970, 275.900 579 M 357.571 578.571 C 354.859 581.284, 356.358 585, 360.165 585 C 361.652 585, 364 582.329, 364 580.637 C 364 579.807, 360.913 577, 360 577 C 359.529 577, 358.436 577.707, 357.571 578.571 M 444.135 594.007 C 438.956 600.798, 438.091 604, 441.433 604 C 442.256 604, 443.411 603.100, 444 602 C 444.589 600.900, 445.617 600.019, 446.285 600.042 C 446.953 600.066, 450.868 602.740, 454.984 605.985 C 461.942 611.471, 462.592 611.774, 464.234 610.288 C 465.205 609.409, 466 608.372, 466 607.983 C 466 607.593, 462.928 604.991, 459.173 602.198 C 449.906 595.308, 449.270 594.465, 451.483 592.018 C 453.350 589.955, 452.931 587, 450.771 587 C 450.061 587, 447.075 590.153, 444.135 594.007 M 289.357 599.178 C 279 607.651, 278.843 607.838, 280.105 610.196 C 281.391 612.600, 282.278 612.478, 285.938 609.399 C 291.324 604.866, 294.281 608.995, 289.896 614.926 C 288.473 616.851, 288.016 618.474, 288.482 619.943 C 289.554 623.322, 292.225 622.013, 295 616.749 C 297.055 612.849, 297.989 612.005, 300.250 612.003 C 303.812 611.999, 307 608.763, 307 605.150 C 307 603.583, 305.725 600.545, 304.167 598.400 C 298.888 591.133, 299.211 591.116, 289.357 599.178 M 296.223 600.557 C 293.419 602.520, 293.397 604.464, 296.155 606.396 C 300.230 609.250, 304.352 603.752, 300.800 600.200 C 299.257 598.657, 298.894 598.685, 296.223 600.557 M 428.654 612.165 L 423.676 617.329 433.007 626.218 L 442.338 635.107 444.419 633.025 L 446.500 630.943 443.250 628.399 C 437.063 623.556, 440.764 618.893, 447.596 622.924 C 450.361 624.556, 451.554 624.774, 453.122 623.935 C 456.075 622.354, 455.050 620.796, 449.220 618 C 446.125 616.516, 444.006 614.844, 444.004 613.885 C 443.997 610.754, 440.038 607, 436.744 607 C 434.306 607, 432.554 608.118, 428.654 612.165 M 432.466 614.038 C 430.662 616.031, 430.682 616.136, 433.369 618.788 L 436.117 621.500 438.008 619.201 C 439.889 616.916, 439.707 614.226, 437.573 612.765 C 435.795 611.548, 434.406 611.894, 432.466 614.038 M 303.882 617.882 C 300.615 621.150, 300 622.425, 300 625.932 C 300 631.448, 302.169 635.385, 307.224 639.047 L 311.376 642.055 316.106 637.396 C 318.708 634.833, 320.626 632.189, 320.369 631.520 C 320.113 630.852, 318.616 629.353, 317.043 628.190 C 314.564 626.357, 314.021 626.270, 312.969 627.538 C 312.016 628.686, 312.022 629.322, 313 630.500 C 313.993 631.697, 313.993 632.303, 313 633.500 C 311.150 635.729, 308.440 635.320, 306.615 632.535 C 304.173 628.809, 304.614 625.232, 307.923 621.923 C 312.054 617.792, 315.897 618.008, 321.049 622.663 C 324.584 625.857, 325.288 626.141, 326.548 624.880 C 327.809 623.620, 327.518 622.946, 324.278 619.610 C 319.948 615.152, 317.390 614, 311.817 614 C 308.443 614, 307.115 614.650, 303.882 617.882 M 410.584 628.216 C 408.678 630.122, 406.807 632.919, 406.428 634.432 C 404.584 641.778, 411.654 651, 419.131 651 C 436.111 651, 436.043 626.864, 419.057 625.232 C 414.391 624.783, 413.813 624.987, 410.584 628.216 M 326.036 636.750 C 322.555 642.112, 319.660 647.073, 319.603 647.774 C 319.474 649.371, 331.053 656.849, 332.750 656.264 C 335.137 655.441, 333.978 653.011, 330 650.500 C 325.620 647.735, 325.435 647.328, 327.392 644.750 C 329.125 642.468, 330.463 642.543, 333.945 645.118 C 336.870 647.280, 339 647.004, 339 644.464 C 339 643.684, 337.762 642.259, 336.250 641.296 C 332.543 638.937, 331.967 637.931, 333.105 635.804 C 334.337 633.502, 335.871 633.553, 339 636 C 342.204 638.506, 345 638.573, 345 636.142 C 345 634.953, 342.876 632.973, 339.099 630.642 C 335.854 628.639, 333.011 627, 332.781 627 C 332.552 627, 329.516 631.388, 326.036 636.750 M 412.413 632.493 C 408.347 638.697, 417.605 649.454, 423.619 645.514 C 427.107 643.229, 427.598 639.703, 425.011 635.518 C 421.253 629.437, 415.345 628.018, 412.413 632.493 M 388 639.862 C 382.634 641.953, 382.605 642.440, 387.103 655 C 388.778 659.675, 390.325 664.063, 390.542 664.750 C 390.999 666.195, 392.898 666.350, 394.867 665.104 C 395.983 664.396, 396.012 663.568, 395.026 660.580 C 393.762 656.750, 394.774 654, 397.448 654 C 398.110 654, 399.630 652.958, 400.826 651.686 C 403.807 648.512, 403.684 643.593, 400.545 640.455 C 397.645 637.554, 394.327 637.397, 388 639.862 M 365.693 644.027 C 360.564 648.061, 362.756 654.200, 370.477 657.426 C 372.869 658.425, 374 659.550, 374 660.930 C 374 663.259, 371.287 664.234, 366.039 663.792 C 363.440 663.573, 362.490 663.922, 362.226 665.195 C 361.431 669.027, 374.696 669.481, 377.811 665.727 C 381.497 661.286, 379.014 655.286, 372.335 652.496 C 369.603 651.354, 368.925 650.554, 369.178 648.771 C 369.458 646.794, 370.082 646.500, 374 646.500 C 377.833 646.500, 378.500 646.204, 378.500 644.500 C 378.500 641.427, 369.424 641.092, 365.693 644.027 M 391.250 642.662 C 389.609 643.325, 389.652 647.141, 391.326 649.431 C 392.980 651.694, 396.616 650.784, 397.539 647.877 C 398.631 644.436, 394.776 641.240, 391.250 642.662" stroke="none" fill="#000000" fill-rule="evenodd"/>
</svg>